<svg version="1.1" viewBox="0.0 0.0 960.0 540.0" fill="none" stroke="none" stroke-linecap="square" stroke-miterlimit="10" xmlns:xlink="http://www.w3.org/1999/xlink" xmlns="http://www.w3.org/2000/svg"><clipPath id="g7afcd86279_0_0.0"><path d="m0 0l960.0 0l0 540.0l-960.0 0l0 -540.0z" clip-rule="nonzero"/></clipPath><g clip-path="url(#g7afcd86279_0_0.0)"><path fill="#ffffff" d="m0 0l960.0 0l0 540.0l-960.0 0z" fill-rule="evenodd"/><path fill="#f55e61" d="m480.0 -0.002624672l480.0 0l0 540.0l-480.0 0z" fill-rule="evenodd"/><path fill="#000000" fill-opacity="0.0" d="m528.04987 471.9685l49.165344 0" fill-rule="evenodd"/><path stroke="#ffffff" stroke-width="2.0" stroke-linejoin="round" stroke-linecap="butt" d="m528.04987 471.9685l49.165344 0" fill-rule="evenodd"/><path fill="#000000" fill-opacity="0.0" d="m27.874016 116.32021l424.6929 0l0 176.75589l-424.6929 0z" fill-rule="evenodd"/><path fill="#f55e61" d="m220.0616 163.79549q-0.21875 2.84375 -0.3125 5.484375q-0.078125 2.625 -0.078125 4.03125q0 1.234375 0.046875 2.359375q0.0625 1.109375 0.125 1.890625l-1.296875 0q-0.890625 -4.703125 -2.265625 -7.4375q-1.375 -2.75 -3.28125 -3.890625q-1.90625 -1.15625 -4.46875 -1.15625l-1.296875 0l0 31.96875q0 2.25 0.46875 3.375q0.484375 1.109375 1.765625 1.484375q1.296875 0.359375 3.765625 0.40625l0 1.125q-1.734375 -0.0625 -4.625 -0.109375q-2.890625 -0.0625 -6.015625 -0.0625q-3.078125 0 -5.828125 0.0625q-2.75 0.046875 -4.421875 0.109375l0 -1.125q2.515625 -0.046875 3.796875 -0.40625q1.296875 -0.375 1.734375 -1.484375q0.453125 -1.125 0.453125 -3.375l0 -31.96875l-1.234375 0q-2.5625 0 -4.46875 1.15625q-1.90625 1.140625 -3.25 3.859375q-1.34375 2.71875 -2.359375 7.46875l-1.28125 0q0.109375 -0.78125 0.140625 -1.890625q0.03125 -1.125 0.03125 -2.359375q0 -1.40625 -0.09375 -4.03125q-0.078125 -2.640625 -0.296875 -5.484375q2.5625 0.046875 5.609375 0.109375q3.0625 0.046875 6.140625 0.046875q3.078125 0 5.546875 0q2.515625 0 5.5625 0q3.0625 0 6.140625 -0.046875q3.078125 -0.0625 5.546875 -0.109375zm14.955734 9.90625q4.921875 0 7.71875 2.921875q2.796875 2.90625 2.796875 9.515625l-18.421875 0l-0.109375 -1.078125l11.484375 0q0.046875 -2.734375 -0.34375 -5.0625q-0.390625 -2.328125 -1.234375 -3.71875q-0.828125 -1.40625 -2.234375 -1.40625q-1.953125 0 -3.328125 2.46875q-1.375 2.46875 -1.65625 8.171875l0.171875 0.34375q-0.0625 0.671875 -0.09375 1.40625q-0.015625 0.71875 -0.015625 1.5q0 3.859375 1.09375 6.28125q1.09375 2.40625 2.765625 3.5q1.6875 1.078125 3.421875 1.078125q1.671875 0 3.65625 -0.828125q2.0 -0.84375 3.734375 -3.640625l1.0 0.328125q-0.671875 2.125 -2.125 4.140625q-1.453125 2.015625 -3.703125 3.3125q-2.234375 1.28125 -5.359375 1.28125q-3.8125 0 -6.734375 -1.625q-2.90625 -1.625 -4.5625 -4.921875q-1.640625 -3.3125 -1.640625 -8.40625q0 -5.203125 1.75 -8.671875q1.765625 -3.46875 4.875 -5.171875q3.109375 -1.71875 7.09375 -1.71875zm25.368378 0.78125l0 1.171875q-1.125 0 -1.65625 0.515625q-0.53125 0.5 0.03125 1.390625l14.71875 21.90625q0.671875 1.0 1.421875 1.8125q0.765625 0.8125 1.71875 0.984375l0 1.171875q-0.84375 -0.0625 -2.546875 -0.140625q-1.703125 -0.078125 -3.4375 -0.078125q-2.015625 0 -4.15625 0.078125q-2.125 0.078125 -3.125 0.140625l0 -1.171875q1.109375 0 1.640625 -0.5q0.53125 -0.515625 -0.015625 -1.40625l-14.734375 -21.890625q-0.953125 -1.40625 -1.59375 -2.046875q-0.640625 -0.640625 -1.546875 -0.765625l0 -1.171875q0.953125 0.0625 2.859375 0.140625q1.90625 0.078125 3.8125 0.078125q1.84375 0 3.75 -0.078125q1.90625 -0.078125 2.859375 -0.140625zm-1.296875 15.453125q0 0 0.171875 0.671875q0.171875 0.671875 0.171875 0.671875l-2.25 2.859375q-1.671875 2.1875 -1.84375 4.015625q-0.171875 1.8125 0.953125 2.90625q1.125 1.09375 3.078125 1.25l0 1.125q-1.0625 -0.0625 -2.609375 -0.078125q-1.53125 -0.03125 -2.984375 -0.0625q-1.453125 -0.03125 -2.46875 -0.03125q-2.296875 0 -3.921875 0.171875l0 -1.125q1.296875 -0.5 2.46875 -1.46875q1.171875 -0.984375 2.625 -2.84375l6.609375 -8.0625zm15.90625 -15.453125l0 1.125q-1.171875 0.328125 -2.46875 1.453125q-1.28125 1.125 -2.6875 2.859375l-6.15625 7.71875q0 0 -0.171875 -0.640625q-0.15625 -0.640625 -0.15625 -0.640625l2.796875 -3.75q2.296875 -2.921875 1.90625 -4.84375q-0.390625 -1.9375 -3.359375 -2.15625l0 -1.125q1.625 0.0625 3.296875 0.125q1.6875 0.046875 3.03125 0.046875q2.34375 0 3.96875 -0.171875zm14.344147 -9.1875l0 9.1875l6.59375 0l0 1.125l-6.59375 0l0 22.625q0 1.671875 0.609375 2.375q0.609375 0.703125 1.84375 0.703125q1.015625 0 2.015625 -0.75q1.015625 -0.765625 1.796875 -2.609375l0.953125 0.5q-0.890625 2.515625 -2.71875 4.140625q-1.8125 1.625 -4.953125 1.625q-1.84375 0 -3.25 -0.484375q-1.40625 -0.46875 -2.3594055 -1.421875q-1.21875 -1.234375 -1.625 -3.046875q-0.390625 -1.8125 -0.390625 -4.734375l0 -18.921875l-4.703125 0l0 -1.125l4.703125 0l0 -7.390625q2.359375 0 4.3437805 -0.421875q1.984375 -0.421875 3.734375 -1.375z" fill-rule="nonzero"/><path fill="#f55e61" d="m117.97997 230.19861q3.796875 0 6.203125 1.078125q2.40625 1.0625 4.3124924 2.5625q0.671875 0.515625 1.125 0.515625q1.0625 0 1.40625 -3.359375l1.28125 0q-0.109375 2.171875 -0.171875 5.28125q-0.046875 3.109375 -0.046875 8.265625l-1.296875 0q-0.390625 -3.359375 -1.203125 -5.84375q-0.8125 -2.5 -2.9999924 -4.296875q-1.34375 -1.28125 -3.328125 -2.0q-1.984375 -0.734375 -4.0 -0.734375q-3.078125 0 -5.265625 1.59375q-2.1875 1.59375 -3.59375 4.34375q-1.390625 2.734375 -2.0625 6.1875q-0.671875 3.4375 -0.671875 7.125q0 10.09375 2.765625 14.734375q2.78125 4.640625 7.984375 4.640625q1.34375 0 2.34375 -0.328125q1.015625 -0.34375 1.640625 -0.78125q0.78125 -0.5625 1.0625 -1.203125q0.28125 -0.640625 0.28125 -1.71875l0 -5.484375q0 -2.578125 -0.421875 -3.828125q-0.421875 -1.265625 -1.65625 -1.703125q-1.234375 -0.453125 -3.578125 -0.515625l0 -1.125q1.171875 0.0625 2.8125 0.09375q1.65625 0.03125 3.453125 0.0625q1.796875 0.015625 3.3125 0.015625q2.3437424 0 4.2968674 -0.046875q1.96875 -0.0625 3.203125 -0.125l0 1.125q-1.578125 0.109375 -2.046875 0.90625q-0.46875 0.78125 -0.46875 3.90625l0 11.09375l-1.125 0q-0.0625 -0.953125 -0.421875 -2.0625q-0.359375 -1.125 -1.203125 -1.125q-0.390625 0 -1.046875 0.203125q-0.640625 0.1875 -1.9843674 0.96875q-2.0625 1.171875 -4.359375 1.984375q-2.296875 0.8125 -4.8125 0.8125q-9.8125 0 -14.90625 -5.3125q-5.09375 -5.328125 -5.09375 -14.84375q0 -6.390625 2.59375 -11.09375q2.609375 -4.703125 7.171875 -7.328125q4.578125 -2.640625 10.515625 -2.640625zm34.269356 10.703125q4.921875 0 7.71875 2.921875q2.796875 2.90625 2.796875 9.515625l-18.421875 0l-0.109375 -1.078125l11.484375 0q0.046875 -2.734375 -0.34375 -5.0625q-0.390625 -2.328125 -1.234375 -3.71875q-0.828125 -1.40625 -2.234375 -1.40625q-1.953125 0 -3.328125 2.46875q-1.375 2.46875 -1.65625 8.171875l0.171875 0.34375q-0.0625 0.671875 -0.09375 1.40625q-0.015625 0.71875 -0.015625 1.5q0 3.859375 1.09375 6.28125q1.09375 2.40625 2.765625 3.5q1.6875 1.078125 3.421875 1.078125q1.671875 0 3.65625 -0.828125q2.0 -0.84375 3.734375 -3.640625l1.0 0.328125q-0.671875 2.125 -2.125 4.140625q-1.453125 2.015625 -3.703125 3.3125q-2.234375 1.28125 -5.359375 1.28125q-3.8125 0 -6.734375 -1.625q-2.90625 -1.625 -4.5625 -4.921875q-1.640625 -3.3125 -1.640625 -8.40625q0 -5.203125 1.75 -8.671875q1.765625 -3.46875 4.875 -5.171875q3.109375 -1.71875 7.09375 -1.71875zm34.263 0q2.359375 0 3.84375 0.59375q1.484375 0.578125 2.328125 1.59375q0.890625 1.0625 1.3125 2.75q0.421875 1.671875 0.421875 4.53125l0 15.0625q0 2.34375 0.8125 3.1875q0.8125 0.84375 2.765625 0.84375l0 1.171875q-1.0625 -0.0625 -3.1875 -0.140625q-2.125 -0.078125 -4.203125 -0.078125q-2.125 0 -4.171875 0.078125q-2.046875 0.078125 -3.109375 0.140625l0 -1.171875q1.671875 0 2.34375 -0.84375q0.6875 -0.84375 0.6875 -3.1875l0 -17.421875q0 -1.40625 -0.28125 -2.4375q-0.28125 -1.03125 -1.015625 -1.609375q-0.734375 -0.59375 -2.1875 -0.59375q-2.34375 0 -3.953125 1.84375q-1.59375 1.84375 -1.59375 4.640625l0 15.578125q0 2.34375 0.703125 3.1875q0.703125 0.84375 2.328125 0.84375l0 1.171875q-1.0 -0.0625 -2.9375 -0.140625q-1.9375 -0.078125 -4.0 -0.078125q-2.140625 0 -4.375 0.078125q-2.234375 0.078125 -3.359375 0.140625l0 -1.171875q1.953125 0 2.765625 -0.84375q0.8125 -0.84375 0.8125 -3.1875l0 -17.640625q0 -2.53125 -0.75 -3.734375q-0.75 -1.203125 -2.828125 -1.203125l0 -1.171875q1.796875 0.171875 3.46875 0.171875q2.359375 0 4.390625 -0.1875q2.046875 -0.203125 3.78125 -0.59375l0 5.03125q1.40625 -2.859375 3.8125 -4.03125q2.40625 -1.171875 5.375 -1.171875zm28.009003 0q4.921875 0 7.71875 2.921875q2.796875 2.90625 2.796875 9.515625l-18.421875 0l-0.109375 -1.078125l11.484375 0q0.046875 -2.734375 -0.34375 -5.0625q-0.390625 -2.328125 -1.234375 -3.71875q-0.828125 -1.40625 -2.234375 -1.40625q-1.953125 0 -3.328125 2.46875q-1.375 2.46875 -1.65625 8.171875l0.171875 0.34375q-0.0625 0.671875 -0.09375 1.40625q-0.015625 0.71875 -0.015625 1.5q0 3.859375 1.09375 6.28125q1.09375 2.40625 2.765625 3.5q1.6875 1.078125 3.421875 1.078125q1.671875 0 3.65625 -0.828125q2.0 -0.84375 3.734375 -3.640625l1.0 0.328125q-0.671875 2.125 -2.125 4.140625q-1.453125 2.015625 -3.703125 3.3125q-2.234375 1.28125 -5.359375 1.28125q-3.8125 0 -6.734375 -1.625q-2.90625 -1.625 -4.5625 -4.921875q-1.640625 -3.3125 -1.640625 -8.40625q0 -5.203125 1.75 -8.671875q1.765625 -3.46875 4.875 -5.171875q3.109375 -1.71875 7.09375 -1.71875zm32.7005 0q1.796875 0 2.90625 0.765625q1.125 0.75 1.65625 1.921875q0.53125 1.171875 0.53125 2.46875q0 2.0625 -1.203125 3.390625q-1.203125 1.3125 -3.15625 1.3125q-1.96875 0 -3.0625 -0.984375q-1.09375 -0.984375 -1.09375 -2.609375q0 -1.5625 0.703125 -2.59375q0.703125 -1.046875 1.765625 -1.765625q-0.78125 -0.234375 -1.5625 0.046875q-1.46875 0.234375 -2.609375 1.390625q-1.140625 1.140625 -1.828125 2.703125q-0.671875 1.5625 -0.671875 3.078125l0 14.84375q0 2.6875 1.3125 3.640625q1.328125 0.953125 3.953125 0.953125l0 1.171875q-1.28125 -0.0625 -3.75 -0.140625q-2.453125 -0.078125 -5.140625 -0.078125q-2.25 0 -4.546875 0.078125q-2.296875 0.078125 -3.46875 0.140625l0 -1.171875q1.953125 0 2.765625 -0.84375q0.8125 -0.84375 0.8125 -3.1875l0 -17.640625q0 -2.53125 -0.75 -3.734375q-0.75 -1.203125 -2.828125 -1.203125l0 -1.171875q1.796875 0.171875 3.46875 0.171875q2.359375 0 4.390625 -0.1875q2.046875 -0.203125 3.78125 -0.59375l0 5.203125q0.671875 -1.515625 1.796875 -2.75q1.125 -1.234375 2.578125 -1.921875q1.453125 -0.703125 3.25 -0.703125zm14.277008 30.125q-3.75 0 -5.4375 -1.953125q-1.6718903 -1.96875 -1.6718903 -4.765625q0 -2.40625 1.09375 -3.921875q1.0937653 -1.515625 2.8281403 -2.484375q1.734375 -0.984375 3.65625 -1.625q1.9375 -0.65625 3.703125 -1.296875q1.765625 -0.640625 2.859375 -1.46875q1.09375 -0.84375 1.09375 -2.140625l0 -4.359375q0 -1.46875 -0.484375 -2.609375q-0.46875 -1.15625 -1.453125 -1.765625q-0.984375 -0.609375 -2.546875 -0.609375q-1.125 0 -2.25 0.3125q-1.109375 0.296875 -1.84375 1.03125q1.578125 0.546875 2.4375 1.703125q0.875 1.140625 0.875 2.609375q0 1.890625 -1.328125 3.015625q-1.3125 1.125 -3.09375 1.125q-2.015625 0 -3.0625 -1.265625q-1.0312653 -1.265625 -1.0312653 -3.046875q0 -1.625 0.81251526 -2.6875q0.8125 -1.0625 2.265625 -2.015625q1.578125 -0.90625 3.78125 -1.40625q2.21875 -0.5 4.796875 -0.5q2.5625 0 4.640625 0.53125q2.078125 0.53125 3.46875 1.9375q1.296875 1.28125 1.6875 3.15625q0.390625 1.875 0.390625 4.734375l0 15.234375q0 1.34375 0.28125 1.90625q0.28125 0.546875 0.953125 0.546875q0.5625 0 1.0625 -0.265625q0.5 -0.28125 0.953125 -0.671875l0.5625 0.9375q-1.1875 1.015625 -2.734375 1.546875q-1.53125 0.53125 -3.4375 0.53125q-3.359375 0 -4.453125 -1.375q-1.078125 -1.375 -1.140625 -3.15625q-1.40625 2.296875 -3.453125 3.421875q-2.03125 1.109375 -4.78125 1.109375zm4.3125 -3.578125q1.0625 0 1.984375 -0.5q0.921875 -0.515625 1.828125 -1.796875l0 -11.484375q-0.671875 1.125 -1.875 1.875q-1.203125 0.75 -2.46875 1.625q-1.265625 0.875 -2.109375 2.21875q-0.828125 1.34375 -0.828125 3.578125q0 2.40625 1.0 3.453125q1.015625 1.03125 2.46875 1.03125zm28.67987 -34.953125l0 9.1875l6.59375 0l0 1.125l-6.59375 0l0 22.625q0 1.671875 0.609375 2.375q0.609375 0.703125 1.84375 0.703125q1.015625 0 2.015625 -0.75q1.015625 -0.765625 1.796875 -2.609375l0.953125 0.5q-0.890625 2.515625 -2.71875 4.140625q-1.8125 1.625 -4.953125 1.625q-1.84375 0 -3.25 -0.484375q-1.40625 -0.46875 -2.359375 -1.421875q-1.21875 -1.234375 -1.625 -3.046875q-0.390625 -1.8125 -0.390625 -4.734375l0 -18.921875l-4.703125 0l0 -1.125l4.703125 0l0 -7.390625q2.359375 0 4.34375 -0.421875q1.984375 -0.421875 3.734375 -1.375zm15.618256 -5.265625q2.34375 0 3.71875 1.15625q1.375 1.140625 1.375 3.15625q0 2.015625 -1.375 3.171875q-1.375 1.140625 -3.71875 1.140625q-2.359375 0 -3.734375 -1.140625q-1.359375 -1.15625 -1.359375 -3.171875q0 -2.015625 1.359375 -3.15625q1.375 -1.15625 3.734375 -1.15625zm4.359375 13.84375l0 24.359375q0 2.34375 0.8125 3.1875q0.8125 0.84375 2.78125 0.84375l0 1.171875q-1.015625 -0.0625 -3.140625 -0.140625q-2.125 -0.078125 -4.3125 -0.078125q-2.1875 0 -4.421875 0.078125q-2.234375 0.078125 -3.359375 0.140625l0 -1.171875q1.953125 0 2.765625 -0.84375q0.8125 -0.84375 0.8125 -3.1875l0 -17.640625q0 -2.53125 -0.75 -3.734375q-0.75 -1.203125 -2.828125 -1.203125l0 -1.171875q1.796875 0.171875 3.46875 0.171875q2.359375 0 4.390625 -0.1875q2.046875 -0.203125 3.78125 -0.59375zm20.452484 -0.171875q4.078125 0 7.15625 1.515625q3.09375 1.5 4.828125 4.875q1.734375 3.359375 1.734375 8.890625q0 5.546875 -1.734375 8.890625q-1.734375 3.328125 -4.828125 4.84375q-3.078125 1.5 -7.15625 1.5q-3.984375 0 -7.09375 -1.5q-3.109375 -1.515625 -4.875 -4.84375q-1.75 -3.34375 -1.75 -8.890625q0 -5.53125 1.75 -8.890625q1.765625 -3.375 4.875 -4.875q3.109375 -1.515625 7.09375 -1.515625zm0 1.125q-2.25 0 -3.765625 3.328125q-1.5 3.328125 -1.5 10.828125q0 7.515625 1.5 10.8125q1.515625 3.296875 3.765625 3.296875q2.296875 0 3.78125 -3.296875q1.484375 -3.296875 1.484375 -10.8125q0 -7.5 -1.484375 -10.828125q-1.484375 -3.328125 -3.78125 -3.328125zm38.015015 -1.125q2.359375 0 3.84375 0.59375q1.484375 0.578125 2.328125 1.59375q0.890625 1.0625 1.3125 2.75q0.421875 1.671875 0.421875 4.53125l0 15.0625q0 2.34375 0.8125 3.1875q0.8125 0.84375 2.765625 0.84375l0 1.171875q-1.0625 -0.0625 -3.1875 -0.140625q-2.125 -0.078125 -4.203125 -0.078125q-2.125 0 -4.171875 0.078125q-2.046875 0.078125 -3.109375 0.140625l0 -1.171875q1.671875 0 2.34375 -0.84375q0.6875 -0.84375 0.6875 -3.1875l0 -17.421875q0 -1.40625 -0.28125 -2.4375q-0.28125 -1.03125 -1.015625 -1.609375q-0.734375 -0.59375 -2.1875 -0.59375q-2.34375 0 -3.953125 1.84375q-1.59375 1.84375 -1.59375 4.640625l0 15.578125q0 2.34375 0.703125 3.1875q0.703125 0.84375 2.328125 0.84375l0 1.171875q-1.0 -0.0625 -2.9375 -0.140625q-1.9375 -0.078125 -4.0 -0.078125q-2.140625 0 -4.375 0.078125q-2.234375 0.078125 -3.359375 0.140625l0 -1.171875q1.953125 0 2.765625 -0.84375q0.8125 -0.84375 0.8125 -3.1875l0 -17.640625q0 -2.53125 -0.75 -3.734375q-0.75 -1.203125 -2.828125 -1.203125l0 -1.171875q1.796875 0.171875 3.46875 0.171875q2.359375 0 4.390625 -0.1875q2.046875 -0.203125 3.78125 -0.59375l0 5.03125q1.40625 -2.859375 3.8125 -4.03125q2.40625 -1.171875 5.375 -1.171875z" fill-rule="nonzero"/><path fill="#000000" fill-opacity="0.0" d="m27.874016 298.70877l424.6929 0l0 141.25983l-424.6929 0z" fill-rule="evenodd"/><path fill="#000000" fill-opacity="0.0" d="m518.5827 76.031494l402.8346 0l0 387.937l-402.8346 0z" fill-rule="evenodd"/><path fill="#ffffff" d="m544.74194 235.61438q1.21875 0 2.390625 0.640625q1.171875 0.625 1.828125 1.796875q0.65625 1.171875 0.65625 2.4375q0 2.015625 -1.4375 3.453125q-1.421875 1.421875 -3.4375 1.421875q-2.015625 0 -3.453125 -1.421875q-1.421875 -1.4375 -1.421875 -3.453125q0 -1.28125 0.65625 -2.4375q0.65625 -1.171875 1.828125 -1.796875q1.171875 -0.640625 2.390625 -0.640625z" fill-rule="nonzero"/><path fill="#ffffff" d="m588.98895 243.52063q0.1875 0 0.328125 0.15625l0.875 0.9375q-1.0 1.15625 -2.421875 1.8125q-1.421875 0.640625 -3.4375 0.640625q-1.75 0 -3.1875 -0.609375q-1.421875 -0.609375 -2.4375 -1.703125q-1.0 -1.09375 -1.5625 -2.625q-0.546875 -1.53125 -0.546875 -3.359375q0 -1.84375 0.59375 -3.359375q0.59375 -1.53125 1.671875 -2.625q1.078125 -1.109375 2.578125 -1.71875q1.5 -0.609375 3.3125 -0.609375q1.796875 0 3.09375 0.5625q1.296875 0.5625 2.296875 1.5l-0.703125 1.015625q-0.078125 0.109375 -0.1875 0.1875q-0.09375 0.078125 -0.296875 0.078125q-0.140625 0 -0.3125 -0.109375q-0.15625 -0.109375 -0.390625 -0.265625q-0.21875 -0.15625 -0.53125 -0.34375q-0.296875 -0.1875 -0.71875 -0.34375q-0.421875 -0.15625 -0.984375 -0.265625q-0.546875 -0.109375 -1.265625 -0.109375q-1.3125 0 -2.390625 0.453125q-1.078125 0.453125 -1.859375 1.28125q-0.78125 0.8125 -1.21875 2.015625q-0.4375 1.1875 -0.4375 2.65625q0 1.515625 0.4375 2.703125q0.4375 1.1875 1.1875 2.015625q0.75 0.8125 1.78125 1.25q1.03125 0.4375 2.21875 0.4375q0.734375 0 1.296875 -0.078125q0.578125 -0.09375 1.078125 -0.28125q0.5 -0.1875 0.921875 -0.453125q0.421875 -0.28125 0.84375 -0.671875q0.203125 -0.171875 0.375 -0.171875zm3.7696533 3.359375l0 -11.46875l1.15625 0q0.328125 0 0.453125 0.125q0.125 0.125 0.171875 0.421875l0.125 1.796875q0.59375 -1.203125 1.453125 -1.875q0.875 -0.671875 2.046875 -0.671875q0.46875 0 0.84375 0.109375q0.390625 0.09375 0.71875 0.296875l-0.25 1.5q-0.078125 0.28125 -0.359375 0.28125q-0.15625 0 -0.484375 -0.109375q-0.328125 -0.109375 -0.921875 -0.109375q-1.046875 0 -1.765625 0.625q-0.703125 0.609375 -1.171875 1.765625l0 7.3125l-2.015625 0zm13.677429 -11.65625q1.03125 0 1.890625 0.34375q0.875 0.34375 1.5 1.0q0.640625 0.65625 1.0 1.609375q0.359375 0.953125 0.359375 2.171875q0 0.484375 -0.109375 0.640625q-0.09375 0.15625 -0.375 0.15625l-7.640625 0q0.03125 1.09375 0.296875 1.90625q0.28125 0.796875 0.75 1.34375q0.46875 0.53125 1.125 0.796875q0.671875 0.265625 1.484375 0.265625q0.75 0 1.296875 -0.171875q0.5625 -0.1875 0.953125 -0.390625q0.390625 -0.203125 0.65625 -0.375q0.265625 -0.171875 0.46875 -0.171875q0.25 0 0.375 0.1875l0.578125 0.734375q-0.375 0.453125 -0.90625 0.796875q-0.515625 0.328125 -1.109375 0.546875q-0.59375 0.203125 -1.234375 0.3125q-0.625 0.109375 -1.25 0.109375q-1.1875 0 -2.203125 -0.390625q-1.0 -0.40625 -1.734375 -1.1875q-0.71875 -0.78125 -1.125 -1.921875q-0.40625 -1.140625 -0.40625 -2.625q0 -1.203125 0.359375 -2.234375q0.375 -1.046875 1.0625 -1.8125q0.6875 -0.765625 1.6875 -1.203125q1.0 -0.4375 2.25 -0.4375zm0.03125 1.484375q-1.453125 0 -2.296875 0.84375q-0.828125 0.84375 -1.03125 2.34375l6.234375 0q0 -0.703125 -0.203125 -1.28125q-0.1875 -0.59375 -0.5625 -1.015625q-0.359375 -0.421875 -0.90625 -0.65625q-0.53125 -0.234375 -1.234375 -0.234375zm15.715698 10.171875l-0.890625 0q-0.296875 0 -0.484375 -0.09375q-0.171875 -0.09375 -0.234375 -0.375l-0.21875 -1.078125q-0.453125 0.40625 -0.890625 0.734375q-0.421875 0.328125 -0.90625 0.546875q-0.46875 0.21875 -1.015625 0.328125q-0.53125 0.125 -1.1875 0.125q-0.671875 0 -1.265625 -0.1875q-0.578125 -0.1875 -1.015625 -0.5625q-0.421875 -0.375 -0.671875 -0.9375q-0.25 -0.578125 -0.25 -1.359375q0 -0.6875 0.375 -1.3125q0.375 -0.625 1.203125 -1.109375q0.828125 -0.5 2.171875 -0.8125q1.359375 -0.3125 3.296875 -0.359375l0 -0.890625q0 -1.328125 -0.578125 -2.015625q-0.5625 -0.6875 -1.6875 -0.6875q-0.734375 0 -1.234375 0.1875q-0.5 0.1875 -0.875 0.421875q-0.359375 0.234375 -0.625 0.421875q-0.265625 0.171875 -0.53125 0.171875q-0.203125 0 -0.359375 -0.09375q-0.15625 -0.109375 -0.25 -0.265625l-0.359375 -0.65625q0.953125 -0.90625 2.046875 -1.359375q1.109375 -0.453125 2.4375 -0.453125q0.96875 0 1.71875 0.3125q0.75 0.3125 1.25 0.890625q0.515625 0.5625 0.765625 1.375q0.265625 0.796875 0.265625 1.75l0 7.34375zm-5.234375 -1.234375q0.53125 0 0.96875 -0.109375q0.453125 -0.109375 0.84375 -0.296875q0.390625 -0.203125 0.75 -0.484375q0.359375 -0.28125 0.6875 -0.65625l0 -2.390625q-1.390625 0.046875 -2.359375 0.234375q-0.96875 0.171875 -1.59375 0.453125q-0.609375 0.28125 -0.890625 0.671875q-0.265625 0.375 -0.265625 0.859375q0 0.453125 0.140625 0.78125q0.15625 0.328125 0.390625 0.546875q0.25 0.203125 0.59375 0.296875q0.34375 0.09375 0.734375 0.09375zm11.768066 1.421875q-1.359375 0 -2.09375 -0.765625q-0.71875 -0.765625 -0.71875 -2.1875l0 -7.015625l-1.390625 0q-0.171875 0 -0.296875 -0.109375q-0.125 -0.109375 -0.125 -0.34375l0 -0.796875l1.875 -0.234375l0.46875 -3.546875q0.015625 -0.171875 0.140625 -0.28125q0.125 -0.109375 0.328125 -0.109375l1.015625 0l0 3.953125l3.28125 0l0 1.46875l-3.28125 0l0 6.875q0 0.734375 0.34375 1.09375q0.359375 0.34375 0.90625 0.34375q0.328125 0 0.546875 -0.078125q0.234375 -0.09375 0.40625 -0.1875q0.171875 -0.109375 0.28125 -0.1875q0.125 -0.09375 0.21875 -0.09375q0.15625 0 0.28125 0.1875l0.59375 0.96875q-0.515625 0.484375 -1.265625 0.765625q-0.734375 0.28125 -1.515625 0.28125zm7.2164917 -11.65625l0 11.46875l-2.015625 0l0 -11.46875l2.015625 0zm0.453125 -3.609375q0 0.296875 -0.125 0.546875q-0.109375 0.25 -0.3125 0.453125q-0.1875 0.203125 -0.453125 0.3125q-0.265625 0.109375 -0.546875 0.109375q-0.296875 0 -0.5625 -0.109375q-0.25 -0.109375 -0.453125 -0.3125q-0.1875 -0.203125 -0.3125 -0.453125q-0.109375 -0.25 -0.109375 -0.546875q0 -0.296875 0.109375 -0.5625q0.125 -0.265625 0.3125 -0.453125q0.203125 -0.203125 0.453125 -0.3125q0.265625 -0.125 0.5625 -0.125q0.28125 0 0.546875 0.125q0.265625 0.109375 0.453125 0.3125q0.203125 0.1875 0.3125 0.453125q0.125 0.265625 0.125 0.5625zm3.1125488 15.078125l0 -11.46875l1.203125 0q0.421875 0 0.546875 0.40625l0.15625 1.25q0.75 -0.828125 1.671875 -1.328125q0.921875 -0.515625 2.125 -0.515625q0.9375 0 1.65625 0.3125q0.734375 0.3125 1.203125 0.890625q0.484375 0.5625 0.734375 1.375q0.25 0.796875 0.25 1.765625l0 7.3125l-2.015625 0l0 -7.3125q0 -1.296875 -0.59375 -2.015625q-0.59375 -0.71875 -1.8125 -0.71875q-0.90625 0 -1.6875 0.4375q-0.765625 0.421875 -1.421875 1.15625l0 8.453125l-2.015625 0zm16.45636 -11.671875q0.75 0 1.390625 0.171875q0.65625 0.15625 1.1875 0.484375l3.125 0l0 0.734375q0 0.375 -0.484375 0.484375l-1.296875 0.171875q0.390625 0.75 0.390625 1.65625q0 0.828125 -0.328125 1.515625q-0.328125 0.6875 -0.90625 1.171875q-0.5625 0.484375 -1.359375 0.75q-0.78125 0.265625 -1.71875 0.265625q-0.796875 0 -1.515625 -0.203125q-0.359375 0.234375 -0.546875 0.5q-0.1875 0.25 -0.1875 0.5q0 0.40625 0.328125 0.625q0.328125 0.203125 0.859375 0.296875q0.546875 0.09375 1.234375 0.125q0.703125 0.015625 1.421875 0.0625q0.71875 0.046875 1.40625 0.171875q0.6875 0.125 1.234375 0.40625q0.546875 0.28125 0.875 0.78125q0.328125 0.5 0.328125 1.296875q0 0.734375 -0.375 1.421875q-0.359375 0.6875 -1.046875 1.21875q-0.6875 0.546875 -1.6875 0.875q-1.0 0.328125 -2.265625 0.328125q-1.25 0 -2.203125 -0.25q-0.9375 -0.25 -1.5625 -0.671875q-0.625 -0.421875 -0.9375 -0.96875q-0.3125 -0.546875 -0.3125 -1.15625q0 -0.84375 0.53125 -1.4375q0.546875 -0.59375 1.484375 -0.953125q-0.484375 -0.21875 -0.78125 -0.59375q-0.28125 -0.390625 -0.28125 -1.015625q0 -0.25 0.09375 -0.515625q0.09375 -0.265625 0.28125 -0.53125q0.1875 -0.265625 0.453125 -0.5q0.265625 -0.234375 0.640625 -0.421875q-0.859375 -0.46875 -1.34375 -1.25q-0.46875 -0.796875 -0.46875 -1.84375q0 -0.84375 0.3125 -1.53125q0.328125 -0.6875 0.90625 -1.15625q0.578125 -0.484375 1.375 -0.75q0.796875 -0.265625 1.75 -0.265625zm3.578125 12.296875q0 -0.4375 -0.234375 -0.6875q-0.234375 -0.265625 -0.640625 -0.40625q-0.40625 -0.140625 -0.953125 -0.203125q-0.53125 -0.078125 -1.125 -0.09375q-0.578125 -0.03125 -1.1875 -0.0625q-0.609375 -0.046875 -1.171875 -0.140625q-0.640625 0.3125 -1.046875 0.765625q-0.40625 0.4375 -0.40625 1.046875q0 0.375 0.203125 0.703125q0.203125 0.34375 0.609375 0.578125q0.40625 0.25 1.015625 0.390625q0.625 0.140625 1.46875 0.140625q0.8125 0 1.453125 -0.140625q0.640625 -0.140625 1.09375 -0.421875q0.453125 -0.265625 0.6875 -0.640625q0.234375 -0.375 0.234375 -0.828125zm-3.578125 -6.234375q0.609375 0 1.078125 -0.171875q0.46875 -0.171875 0.78125 -0.46875q0.328125 -0.3125 0.484375 -0.734375q0.15625 -0.421875 0.15625 -0.9375q0 -1.046875 -0.640625 -1.671875q-0.640625 -0.625 -1.859375 -0.625q-1.203125 0 -1.84375 0.625q-0.640625 0.625 -0.640625 1.671875q0 0.515625 0.15625 0.9375q0.171875 0.421875 0.484375 0.734375q0.3125 0.296875 0.78125 0.46875q0.46875 0.171875 1.0625 0.171875zm20.512634 5.609375l-0.890625 0q-0.296875 0 -0.484375 -0.09375q-0.171875 -0.09375 -0.234375 -0.375l-0.21875 -1.078125q-0.453125 0.40625 -0.890625 0.734375q-0.421875 0.328125 -0.90625 0.546875q-0.46875 0.21875 -1.015625 0.328125q-0.53125 0.125 -1.1875 0.125q-0.671875 0 -1.265625 -0.1875q-0.578125 -0.1875 -1.015625 -0.5625q-0.421875 -0.375 -0.671875 -0.9375q-0.25 -0.578125 -0.25 -1.359375q0 -0.6875 0.375 -1.3125q0.375 -0.625 1.203125 -1.109375q0.828125 -0.5 2.171875 -0.8125q1.359375 -0.3125 3.296875 -0.359375l0 -0.890625q0 -1.328125 -0.578125 -2.015625q-0.5625 -0.6875 -1.6875 -0.6875q-0.734375 0 -1.234375 0.1875q-0.5 0.1875 -0.875 0.421875q-0.359375 0.234375 -0.625 0.421875q-0.265625 0.171875 -0.53125 0.171875q-0.203125 0 -0.359375 -0.09375q-0.15625 -0.109375 -0.25 -0.265625l-0.359375 -0.65625q0.953125 -0.90625 2.046875 -1.359375q1.109375 -0.453125 2.4375 -0.453125q0.96875 0 1.71875 0.3125q0.75 0.3125 1.25 0.890625q0.515625 0.5625 0.765625 1.375q0.265625 0.796875 0.265625 1.75l0 7.34375zm-5.234375 -1.234375q0.53125 0 0.96875 -0.109375q0.453125 -0.109375 0.84375 -0.296875q0.390625 -0.203125 0.75 -0.484375q0.359375 -0.28125 0.6875 -0.65625l0 -2.390625q-1.390625 0.046875 -2.359375 0.234375q-0.96875 0.171875 -1.59375 0.453125q-0.609375 0.28125 -0.890625 0.671875q-0.265625 0.375 -0.265625 0.859375q0 0.453125 0.140625 0.78125q0.15625 0.328125 0.390625 0.546875q0.25 0.203125 0.59375 0.296875q0.34375 0.09375 0.734375 0.09375zm8.299316 1.234375l0 -11.46875l1.203125 0q0.421875 0 0.546875 0.40625l0.15625 1.25q0.75 -0.828125 1.671875 -1.328125q0.921875 -0.515625 2.125 -0.515625q0.9375 0 1.65625 0.3125q0.734375 0.3125 1.203125 0.890625q0.484375 0.5625 0.734375 1.375q0.25 0.796875 0.25 1.765625l0 7.3125l-2.015625 0l0 -7.3125q0 -1.296875 -0.59375 -2.015625q-0.59375 -0.71875 -1.8125 -0.71875q-0.90625 0 -1.6875 0.4375q-0.765625 0.421875 -1.421875 1.15625l0 8.453125l-2.015625 0zm25.26654 -5.875q0.15625 0.28125 0.28125 0.578125q0.125 0.296875 0.234375 0.609375q0.109375 -0.3125 0.234375 -0.59375q0.125 -0.296875 0.28125 -0.59375l5.5 -9.984375q0.140625 -0.265625 0.296875 -0.3125q0.171875 -0.0625 0.453125 -0.0625l1.625 0l0 16.234375l-1.921875 0l0 -11.921875q0 -0.25 0 -0.515625q0.015625 -0.265625 0.046875 -0.5625l-5.5625 10.15625q-0.28125 0.515625 -0.796875 0.515625l-0.3125 0q-0.515625 0 -0.796875 -0.515625l-5.6875 -10.1875q0.03125 0.296875 0.046875 0.578125q0.015625 0.28125 0.015625 0.53125l0 11.921875l-1.921875 0l0 -16.234375l1.625 0q0.296875 0 0.453125 0.0625q0.15625 0.046875 0.296875 0.3125l5.609375 9.984375l0 0zm15.062683 4.03125l7.015625 0l0 1.84375l-9.21875 0l0 -16.234375l2.203125 0l0 14.390625zm13.502502 1.84375l0 -11.46875l1.203125 0q0.421875 0 0.546875 0.40625l0.140625 1.1875q0.640625 -0.78125 1.421875 -1.28125q0.78125 -0.5 1.828125 -0.5q1.171875 0 1.890625 0.65625q0.71875 0.640625 1.03125 1.734375q0.234375 -0.625 0.625 -1.078125q0.390625 -0.453125 0.875 -0.75q0.5 -0.296875 1.046875 -0.421875q0.546875 -0.140625 1.109375 -0.140625q0.90625 0 1.609375 0.296875q0.71875 0.28125 1.203125 0.84375q0.5 0.546875 0.75 1.359375q0.265625 0.8125 0.265625 1.84375l0 7.3125l-2.015625 0l0 -7.3125q0 -1.34375 -0.59375 -2.03125q-0.578125 -0.703125 -1.703125 -0.703125q-0.5 0 -0.953125 0.171875q-0.4375 0.171875 -0.78125 0.515625q-0.34375 0.34375 -0.546875 0.859375q-0.1875 0.515625 -0.1875 1.1875l0 7.3125l-2.015625 0l0 -7.3125q0 -1.375 -0.5625 -2.046875q-0.546875 -0.6875 -1.609375 -0.6875q-0.75 0 -1.390625 0.40625q-0.640625 0.390625 -1.171875 1.09375l0 8.546875l-2.015625 0zm23.241577 -11.65625q1.265625 0 2.265625 0.421875q1.015625 0.421875 1.71875 1.1875q0.71875 0.765625 1.09375 1.859375q0.390625 1.09375 0.390625 2.4375q0 1.359375 -0.390625 2.453125q-0.375 1.09375 -1.09375 1.859375q-0.703125 0.765625 -1.71875 1.1875q-1.0 0.40625 -2.265625 0.40625q-1.25 0 -2.265625 -0.40625q-1.015625 -0.421875 -1.734375 -1.1875q-0.703125 -0.765625 -1.09375 -1.859375q-0.390625 -1.09375 -0.390625 -2.453125q0 -1.34375 0.390625 -2.4375q0.390625 -1.09375 1.09375 -1.859375q0.71875 -0.765625 1.734375 -1.1875q1.015625 -0.421875 2.265625 -0.421875zm0 10.234375q1.703125 0 2.53125 -1.125q0.84375 -1.140625 0.84375 -3.1875q0 -2.046875 -0.84375 -3.1875q-0.828125 -1.15625 -2.53125 -1.15625q-0.859375 0 -1.5 0.296875q-0.625 0.296875 -1.0625 0.859375q-0.421875 0.546875 -0.625 1.359375q-0.203125 0.8125 -0.203125 1.828125q0 1.015625 0.203125 1.828125q0.203125 0.796875 0.625 1.359375q0.4375 0.546875 1.0625 0.84375q0.640625 0.28125 1.5 0.28125zm16.034485 1.421875q-0.4375 0 -0.546875 -0.421875l-0.1875 -1.390625q-0.734375 0.890625 -1.6875 1.4375q-0.9375 0.53125 -2.15625 0.53125q-0.984375 0 -1.796875 -0.375q-0.796875 -0.375 -1.375 -1.109375q-0.5625 -0.75 -0.875 -1.84375q-0.296875 -1.09375 -0.296875 -2.53125q0 -1.265625 0.34375 -2.359375q0.34375 -1.09375 0.984375 -1.890625q0.640625 -0.8125 1.546875 -1.265625q0.921875 -0.453125 2.09375 -0.453125q1.046875 0 1.796875 0.359375q0.75 0.34375 1.34375 1.0l0 -6.375l2.015625 0l0 16.6875l-1.203125 0zm-3.90625 -1.46875q0.984375 0 1.71875 -0.453125q0.75 -0.453125 1.375 -1.28125l0 -5.546875q-0.5625 -0.75 -1.234375 -1.046875q-0.65625 -0.3125 -1.453125 -0.3125q-1.609375 0 -2.46875 1.15625q-0.859375 1.140625 -0.859375 3.25q0 1.125 0.1875 1.921875q0.1875 0.796875 0.5625 1.3125q0.375 0.515625 0.921875 0.765625q0.546875 0.234375 1.25 0.234375zm13.039917 -10.1875q1.03125 0 1.890625 0.34375q0.875 0.34375 1.5 1.0q0.640625 0.65625 1.0 1.609375q0.359375 0.953125 0.359375 2.171875q0 0.484375 -0.109375 0.640625q-0.09375 0.15625 -0.375 0.15625l-7.640625 0q0.03125 1.09375 0.296875 1.90625q0.28125 0.796875 0.75 1.34375q0.46875 0.53125 1.125 0.796875q0.671875 0.265625 1.484375 0.265625q0.75 0 1.296875 -0.171875q0.5625 -0.1875 0.953125 -0.390625q0.390625 -0.203125 0.65625 -0.375q0.265625 -0.171875 0.46875 -0.171875q0.25 0 0.375 0.1875l0.578125 0.734375q-0.375 0.453125 -0.90625 0.796875q-0.515625 0.328125 -1.109375 0.546875q-0.59375 0.203125 -1.234375 0.3125q-0.625 0.109375 -1.25 0.109375q-1.1875 0 -2.203125 -0.390625q-1.0 -0.40625 -1.734375 -1.1875q-0.71875 -0.78125 -1.125 -1.921875q-0.40625 -1.140625 -0.40625 -2.625q0 -1.203125 0.359375 -2.234375q0.375 -1.046875 1.0625 -1.8125q0.6875 -0.765625 1.6875 -1.203125q1.0 -0.4375 2.25 -0.4375zm0.03125 1.484375q-1.453125 0 -2.296875 0.84375q-0.828125 0.84375 -1.03125 2.34375l6.234375 0q0 -0.703125 -0.203125 -1.28125q-0.1875 -0.59375 -0.5625 -1.015625q-0.359375 -0.421875 -0.90625 -0.65625q-0.53125 -0.234375 -1.234375 -0.234375zm9.528259 -6.515625l0 16.6875l-2.015625 0l0 -16.6875l2.015625 0zm11.4071045 16.875q-1.359375 0 -2.09375 -0.765625q-0.71875 -0.765625 -0.71875 -2.1875l0 -7.015625l-1.390625 0q-0.171875 0 -0.296875 -0.109375q-0.125 -0.109375 -0.125 -0.34375l0 -0.796875l1.875 -0.234375l0.46875 -3.546875q0.015625 -0.171875 0.140625 -0.28125q0.125 -0.109375 0.328125 -0.109375l1.015625 0l0 3.953125l3.28125 0l0 1.46875l-3.28125 0l0 6.875q0 0.734375 0.34375 1.09375q0.359375 0.34375 0.90625 0.34375q0.328125 0 0.546875 -0.078125q0.234375 -0.09375 0.40625 -0.1875q0.171875 -0.109375 0.28125 -0.1875q0.125 -0.09375 0.21875 -0.09375q0.15625 0 0.28125 0.1875l0.59375 0.96875q-0.515625 0.484375 -1.265625 0.765625q-0.734375 0.28125 -1.515625 0.28125zm9.622742 -11.84375q1.265625 0 2.265625 0.421875q1.015625 0.421875 1.71875 1.1875q0.71875 0.765625 1.09375 1.859375q0.390625 1.09375 0.390625 2.4375q0 1.359375 -0.390625 2.453125q-0.375 1.09375 -1.09375 1.859375q-0.703125 0.765625 -1.71875 1.1875q-1.0 0.40625 -2.265625 0.40625q-1.25 0 -2.265625 -0.40625q-1.015625 -0.421875 -1.734375 -1.1875q-0.703125 -0.765625 -1.09375 -1.859375q-0.390625 -1.09375 -0.390625 -2.453125q0 -1.34375 0.390625 -2.4375q0.390625 -1.09375 1.09375 -1.859375q0.71875 -0.765625 1.734375 -1.1875q1.015625 -0.421875 2.265625 -0.421875zm0 10.234375q1.703125 0 2.53125 -1.125q0.84375 -1.140625 0.84375 -3.1875q0 -2.046875 -0.84375 -3.1875q-0.828125 -1.15625 -2.53125 -1.15625q-0.859375 0 -1.5 0.296875q-0.625 0.296875 -1.0625 0.859375q-0.421875 0.546875 -0.625 1.359375q-0.203125 0.8125 -0.203125 1.828125q0 1.015625 0.203125 1.828125q0.203125 0.796875 0.625 1.359375q0.4375 0.546875 1.0625 0.84375q0.640625 0.28125 1.5 0.28125zm16.188416 -10.25q0.75 0 1.390625 0.171875q0.65625 0.15625 1.1875 0.484375l3.125 0l0 0.734375q0 0.375 -0.484375 0.484375l-1.296875 0.171875q0.390625 0.75 0.390625 1.65625q0 0.828125 -0.328125 1.515625q-0.328125 0.6875 -0.90625 1.171875q-0.5625 0.484375 -1.359375 0.75q-0.78125 0.265625 -1.71875 0.265625q-0.796875 0 -1.515625 -0.203125q-0.359375 0.234375 -0.546875 0.5q-0.1875 0.25 -0.1875 0.5q0 0.40625 0.328125 0.625q0.328125 0.203125 0.859375 0.296875q0.546875 0.09375 1.234375 0.125q0.703125 0.015625 1.421875 0.0625q0.71875 0.046875 1.40625 0.171875q0.6875 0.125 1.234375 0.40625q0.546875 0.28125 0.875 0.78125q0.328125 0.5 0.328125 1.296875q0 0.734375 -0.375 1.421875q-0.359375 0.6875 -1.046875 1.21875q-0.6875 0.546875 -1.6875 0.875q-1.0 0.328125 -2.265625 0.328125q-1.25 0 -2.203125 -0.25q-0.9375 -0.25 -1.5625 -0.671875q-0.625 -0.421875 -0.9375 -0.96875q-0.3125 -0.546875 -0.3125 -1.15625q0 -0.84375 0.53125 -1.4375q0.546875 -0.59375 1.484375 -0.953125q-0.484375 -0.21875 -0.78125 -0.59375q-0.28125 -0.390625 -0.28125 -1.015625q0 -0.25 0.09375 -0.515625q0.09375 -0.265625 0.28125 -0.53125q0.1875 -0.265625 0.453125 -0.5q0.265625 -0.234375 0.640625 -0.421875q-0.859375 -0.46875 -1.34375 -1.25q-0.46875 -0.796875 -0.46875 -1.84375q0 -0.84375 0.3125 -1.53125q0.328125 -0.6875 0.90625 -1.15625q0.578125 -0.484375 1.375 -0.75q0.796875 -0.265625 1.75 -0.265625zm3.578125 12.296875q0 -0.4375 -0.234375 -0.6875q-0.234375 -0.265625 -0.640625 -0.40625q-0.40625 -0.140625 -0.953125 -0.203125q-0.53125 -0.078125 -1.125 -0.09375q-0.578125 -0.03125 -1.1875 -0.0625q-0.609375 -0.046875 -1.171875 -0.140625q-0.640625 0.3125 -1.046875 0.765625q-0.40625 0.4375 -0.40625 1.046875q0 0.375 0.203125 0.703125q0.203125 0.34375 0.609375 0.578125q0.40625 0.25 1.015625 0.390625q0.625 0.140625 1.46875 0.140625q0.8125 0 1.453125 -0.140625q0.640625 -0.140625 1.09375 -0.421875q0.453125 -0.265625 0.6875 -0.640625q0.234375 -0.375 0.234375 -0.828125zm-3.578125 -6.234375q0.609375 0 1.078125 -0.171875q0.46875 -0.171875 0.78125 -0.46875q0.328125 -0.3125 0.484375 -0.734375q0.15625 -0.421875 0.15625 -0.9375q0 -1.046875 -0.640625 -1.671875q-0.640625 -0.625 -1.859375 -0.625q-1.203125 0 -1.84375 0.625q-0.640625 0.625 -0.640625 1.671875q0 0.515625 0.15625 0.9375q0.171875 0.421875 0.484375 0.734375q0.3125 0.296875 0.78125 0.46875q0.46875 0.171875 1.0625 0.171875zm12.264954 -6.046875q1.03125 0 1.890625 0.34375q0.875 0.34375 1.5 1.0q0.640625 0.65625 1.0 1.609375q0.359375 0.953125 0.359375 2.171875q0 0.484375 -0.109375 0.640625q-0.09375 0.15625 -0.375 0.15625l-7.640625 0q0.03125 1.09375 0.296875 1.90625q0.28125 0.796875 0.75 1.34375q0.46875 0.53125 1.125 0.796875q0.671875 0.265625 1.484375 0.265625q0.75 0 1.296875 -0.171875q0.5625 -0.1875 0.953125 -0.390625q0.390625 -0.203125 0.65625 -0.375q0.265625 -0.171875 0.46875 -0.171875q0.25 0 0.375 0.1875l0.578125 0.734375q-0.375 0.453125 -0.90625 0.796875q-0.515625 0.328125 -1.109375 0.546875q-0.59375 0.203125 -1.234375 0.3125q-0.625 0.109375 -1.25 0.109375q-1.1875 0 -2.203125 -0.390625q-1.0 -0.40625 -1.734375 -1.1875q-0.71875 -0.78125 -1.125 -1.921875q-0.40625 -1.140625 -0.40625 -2.625q0 -1.203125 0.359375 -2.234375q0.375 -1.046875 1.0625 -1.8125q0.6875 -0.765625 1.6875 -1.203125q1.0 -0.4375 2.25 -0.4375zm0.03125 1.484375q-1.453125 0 -2.296875 0.84375q-0.828125 0.84375 -1.03125 2.34375l6.234375 0q0 -0.703125 -0.203125 -1.28125q-0.1875 -0.59375 -0.5625 -1.015625q-0.359375 -0.421875 -0.90625 -0.65625q-0.53125 -0.234375 -1.234375 -0.234375zm7.2938232 10.171875l0 -11.46875l1.203125 0q0.421875 0 0.546875 0.40625l0.15625 1.25q0.75 -0.828125 1.671875 -1.328125q0.921875 -0.515625 2.125 -0.515625q0.9375 0 1.65625 0.3125q0.734375 0.3125 1.203125 0.890625q0.484375 0.5625 0.734375 1.375q0.25 0.796875 0.25 1.765625l0 7.3125l-2.015625 0l0 -7.3125q0 -1.296875 -0.59375 -2.015625q-0.59375 -0.71875 -1.8125 -0.71875q-0.90625 0 -1.6875 0.4375q-0.765625 0.421875 -1.421875 1.15625l0 8.453125l-2.015625 0zm17.14386 -11.65625q1.03125 0 1.890625 0.34375q0.875 0.34375 1.5 1.0q0.640625 0.65625 1.0 1.609375q0.359375 0.953125 0.359375 2.171875q0 0.484375 -0.109375 0.640625q-0.09375 0.15625 -0.375 0.15625l-7.640625 0q0.03125 1.09375 0.296875 1.90625q0.28125 0.796875 0.75 1.34375q0.46875 0.53125 1.125 0.796875q0.671875 0.265625 1.484375 0.265625q0.75 0 1.296875 -0.171875q0.5625 -0.1875 0.953125 -0.390625q0.390625 -0.203125 0.65625 -0.375q0.265625 -0.171875 0.46875 -0.171875q0.25 0 0.375 0.1875l0.578125 0.734375q-0.375 0.453125 -0.90625 0.796875q-0.515625 0.328125 -1.109375 0.546875q-0.59375 0.203125 -1.234375 0.3125q-0.625 0.109375 -1.25 0.109375q-1.1875 0 -2.203125 -0.390625q-1.0 -0.40625 -1.734375 -1.1875q-0.71875 -0.78125 -1.125 -1.921875q-0.40625 -1.140625 -0.40625 -2.625q0 -1.203125 0.359375 -2.234375q0.375 -1.046875 1.0625 -1.8125q0.6875 -0.765625 1.6875 -1.203125q1.0 -0.4375 2.25 -0.4375zm0.03125 1.484375q-1.453125 0 -2.296875 0.84375q-0.828125 0.84375 -1.03125 2.34375l6.234375 0q0 -0.703125 -0.203125 -1.28125q-0.1875 -0.59375 -0.5625 -1.015625q-0.359375 -0.421875 -0.90625 -0.65625q-0.53125 -0.234375 -1.234375 -0.234375zm7.2938843 10.171875l0 -11.46875l1.15625 0q0.328125 0 0.453125 0.125q0.125 0.125 0.171875 0.421875l0.125 1.796875q0.59375 -1.203125 1.453125 -1.875q0.875 -0.671875 2.046875 -0.671875q0.46875 0 0.84375 0.109375q0.390625 0.09375 0.71875 0.296875l-0.25 1.5q-0.078125 0.28125 -0.359375 0.28125q-0.15625 0 -0.484375 -0.109375q-0.328125 -0.109375 -0.921875 -0.109375q-1.046875 0 -1.765625 0.625q-0.703125 0.609375 -1.171875 1.765625l0 7.3125l-2.015625 0zm17.121765 0l-0.890625 0q-0.296875 0 -0.484375 -0.09375q-0.171875 -0.09375 -0.234375 -0.375l-0.21875 -1.078125q-0.453125 0.40625 -0.890625 0.734375q-0.421875 0.328125 -0.90625 0.546875q-0.46875 0.21875 -1.015625 0.328125q-0.53125 0.125 -1.1875 0.125q-0.671875 0 -1.265625 -0.1875q-0.578125 -0.1875 -1.015625 -0.5625q-0.421875 -0.375 -0.671875 -0.9375q-0.25 -0.578125 -0.25 -1.359375q0 -0.6875 0.375 -1.3125q0.375 -0.625 1.203125 -1.109375q0.828125 -0.5 2.171875 -0.8125q1.359375 -0.3125 3.296875 -0.359375l0 -0.890625q0 -1.328125 -0.578125 -2.015625q-0.5625 -0.6875 -1.6875 -0.6875q-0.734375 0 -1.234375 0.1875q-0.5 0.1875 -0.875 0.421875q-0.359375 0.234375 -0.625 0.421875q-0.265625 0.171875 -0.53125 0.171875q-0.203125 0 -0.359375 -0.09375q-0.15625 -0.109375 -0.25 -0.265625l-0.359375 -0.65625q0.953125 -0.90625 2.046875 -1.359375q1.109375 -0.453125 2.4375 -0.453125q0.96875 0 1.71875 0.3125q0.75 0.3125 1.25 0.890625q0.515625 0.5625 0.765625 1.375q0.265625 0.796875 0.265625 1.75l0 7.34375zm-5.234375 -1.234375q0.53125 0 0.96875 -0.109375q0.453125 -0.109375 0.84375 -0.296875q0.390625 -0.203125 0.75 -0.484375q0.359375 -0.28125 0.6875 -0.65625l0 -2.390625q-1.390625 0.046875 -2.359375 0.234375q-0.96875 0.171875 -1.59375 0.453125q-0.609375 0.28125 -0.890625 0.671875q-0.265625 0.375 -0.265625 0.859375q0 0.453125 0.140625 0.78125q0.15625 0.328125 0.390625 0.546875q0.25 0.203125 0.59375 0.296875q0.34375 0.09375 0.734375 0.09375zm11.768066 1.421875q-1.359375 0 -2.09375 -0.765625q-0.71875 -0.765625 -0.71875 -2.1875l0 -7.015625l-1.390625 0q-0.171875 0 -0.296875 -0.109375q-0.125 -0.109375 -0.125 -0.34375l0 -0.796875l1.875 -0.234375l0.46875 -3.546875q0.015625 -0.171875 0.140625 -0.28125q0.125 -0.109375 0.328125 -0.109375l1.015625 0l0 3.953125l3.28125 0l0 1.46875l-3.28125 0l0 6.875q0 0.734375 0.34375 1.09375q0.359375 0.34375 0.90625 0.34375q0.328125 0 0.546875 -0.078125q0.234375 -0.09375 0.40625 -0.1875q0.171875 -0.109375 0.28125 -0.1875q0.125 -0.09375 0.21875 -0.09375q0.15625 0 0.28125 0.1875l0.59375 0.96875q-0.515625 0.484375 -1.265625 0.765625q-0.734375 0.28125 -1.515625 0.28125zm9.528992 -11.84375q1.03125 0 1.890625 0.34375q0.875 0.34375 1.5 1.0q0.640625 0.65625 1.0 1.609375q0.359375 0.953125 0.359375 2.171875q0 0.484375 -0.109375 0.640625q-0.09375 0.15625 -0.375 0.15625l-7.640625 0q0.03125 1.09375 0.296875 1.90625q0.28125 0.796875 0.75 1.34375q0.46875 0.53125 1.125 0.796875q0.671875 0.265625 1.484375 0.265625q0.75 0 1.296875 -0.171875q0.5625 -0.1875 0.953125 -0.390625q0.390625 -0.203125 0.65625 -0.375q0.265625 -0.171875 0.46875 -0.171875q0.25 0 0.375 0.1875l0.578125 0.734375q-0.375 0.453125 -0.90625 0.796875q-0.515625 0.328125 -1.109375 0.546875q-0.59375 0.203125 -1.234375 0.3125q-0.625 0.109375 -1.25 0.109375q-1.1875 0 -2.203125 -0.390625q-1.0 -0.40625 -1.734375 -1.1875q-0.71875 -0.78125 -1.125 -1.921875q-0.40625 -1.140625 -0.40625 -2.625q0 -1.203125 0.359375 -2.234375q0.375 -1.046875 1.0625 -1.8125q0.6875 -0.765625 1.6875 -1.203125q1.0 -0.4375 2.25 -0.4375zm0.03125 1.484375q-1.453125 0 -2.296875 0.84375q-0.828125 0.84375 -1.03125 2.34375l6.234375 0q0 -0.703125 -0.203125 -1.28125q-0.1875 -0.59375 -0.5625 -1.015625q-0.359375 -0.421875 -0.90625 -0.65625q-0.53125 -0.234375 -1.234375 -0.234375z" fill-rule="nonzero"/><path fill="#ffffff" d="m580.7077 278.3475q-1.359375 0 -2.09375 -0.765625q-0.71875 -0.765625 -0.71875 -2.1875l0 -7.015625l-1.390625 0q-0.171875 0 -0.296875 -0.109375q-0.125 -0.109375 -0.125 -0.34375l0 -0.796875l1.875 -0.234375l0.46875 -3.546875q0.015625 -0.171875 0.140625 -0.28125q0.125 -0.109375 0.328125 -0.109375l1.015625 0l0 3.953125l3.28125 0l0 1.46875l-3.28125 0l0 6.875q0 0.734375 0.34375 1.09375q0.359375 0.34375 0.90625 0.34375q0.328125 0 0.546875 -0.078125q0.234375 -0.09375 0.40625 -0.1875q0.171875 -0.109375 0.28125 -0.1875q0.125 -0.09375 0.21875 -0.09375q0.15625 0 0.28125 0.1875l0.59375 0.96875q-0.515625 0.484375 -1.265625 0.765625q-0.734375 0.28125 -1.515625 0.28125zm9.528931 -11.84375q1.03125 0 1.890625 0.34375q0.875 0.34375 1.5 1.0q0.640625 0.65625 1.0 1.609375q0.359375 0.953125 0.359375 2.171875q0 0.484375 -0.109375 0.640625q-0.09375 0.15625 -0.375 0.15625l-7.640625 0q0.03125 1.09375 0.296875 1.90625q0.28125 0.796875 0.75 1.34375q0.46875 0.53125 1.125 0.796875q0.671875 0.265625 1.484375 0.265625q0.75 0 1.296875 -0.171875q0.5625 -0.1875 0.953125 -0.390625q0.390625 -0.203125 0.65625 -0.375q0.265625 -0.171875 0.46875 -0.171875q0.25 0 0.375 0.1875l0.578125 0.734375q-0.375 0.453125 -0.90625 0.796875q-0.515625 0.328125 -1.109375 0.546875q-0.59375 0.203125 -1.234375 0.3125q-0.625 0.109375 -1.25 0.109375q-1.1875 0 -2.203125 -0.390625q-1.0 -0.40625 -1.734375 -1.1875q-0.71875 -0.78125 -1.125 -1.921875q-0.40625 -1.140625 -0.40625 -2.625q0 -1.203125 0.359375 -2.234375q0.375 -1.046875 1.0625 -1.8125q0.6875 -0.765625 1.6875 -1.203125q1.0 -0.4375 2.25 -0.4375zm0.03125 1.484375q-1.453125 0 -2.296875 0.84375q-0.828125 0.84375 -1.03125 2.34375l6.234375 0q0 -0.703125 -0.203125 -1.28125q-0.1875 -0.59375 -0.5625 -1.015625q-0.359375 -0.421875 -0.90625 -0.65625q-0.53125 -0.234375 -1.234375 -0.234375zm9.301392 4.296875l-3.875 -5.59375l1.9375 0q0.25 0 0.359375 0.078125q0.125 0.078125 0.21875 0.21875l2.796875 4.3125q0.109375 -0.328125 0.296875 -0.640625l2.46875 -3.625q0.125 -0.15625 0.234375 -0.25q0.109375 -0.09375 0.28125 -0.09375l1.859375 0l-3.859375 5.46875l4.015625 6.0l-1.9375 0q-0.25 0 -0.390625 -0.125q-0.140625 -0.140625 -0.234375 -0.296875l-2.890625 -4.5q-0.078125 0.328125 -0.234375 0.59375l-2.671875 3.90625q-0.109375 0.15625 -0.25 0.296875q-0.125 0.125 -0.34375 0.125l-1.8125 0l4.03125 -5.875zm12.200073 6.0625q-1.359375 0 -2.09375 -0.765625q-0.71875 -0.765625 -0.71875 -2.1875l0 -7.015625l-1.390625 0q-0.171875 0 -0.296875 -0.109375q-0.125 -0.109375 -0.125 -0.34375l0 -0.796875l1.875 -0.234375l0.46875 -3.546875q0.015625 -0.171875 0.140625 -0.28125q0.125 -0.109375 0.328125 -0.109375l1.015625 0l0 3.953125l3.28125 0l0 1.46875l-3.28125 0l0 6.875q0 0.734375 0.34375 1.09375q0.359375 0.34375 0.90625 0.34375q0.328125 0 0.546875 -0.078125q0.234375 -0.09375 0.40625 -0.1875q0.171875 -0.109375 0.28125 -0.1875q0.125 -0.09375 0.21875 -0.09375q0.15625 0 0.28125 0.1875l0.59375 0.96875q-0.515625 0.484375 -1.265625 0.765625q-0.734375 0.28125 -1.515625 0.28125zm11.589172 -11.65625l0 11.46875l-2.015625 0l0 -11.46875l2.015625 0zm0.453125 -3.609375q0 0.296875 -0.125 0.546875q-0.109375 0.25 -0.3125 0.453125q-0.1875 0.203125 -0.453125 0.3125q-0.265625 0.109375 -0.546875 0.109375q-0.296875 0 -0.5625 -0.109375q-0.25 -0.109375 -0.453125 -0.3125q-0.1875 -0.203125 -0.3125 -0.453125q-0.109375 -0.25 -0.109375 -0.546875q0 -0.296875 0.109375 -0.5625q0.125 -0.265625 0.3125 -0.453125q0.203125 -0.203125 0.453125 -0.3125q0.265625 -0.125 0.5625 -0.125q0.28125 0 0.546875 0.125q0.265625 0.109375 0.453125 0.3125q0.203125 0.1875 0.3125 0.453125q0.125 0.265625 0.125 0.5625zm3.1125488 15.078125l0 -11.46875l1.203125 0q0.421875 0 0.546875 0.40625l0.15625 1.25q0.75 -0.828125 1.671875 -1.328125q0.921875 -0.515625 2.125 -0.515625q0.9375 0 1.65625 0.3125q0.734375 0.3125 1.203125 0.890625q0.484375 0.5625 0.734375 1.375q0.25 0.796875 0.25 1.765625l0 7.3125l-2.015625 0l0 -7.3125q0 -1.296875 -0.59375 -2.015625q-0.59375 -0.71875 -1.8125 -0.71875q-0.90625 0 -1.6875 0.4375q-0.765625 0.421875 -1.421875 1.15625l0 8.453125l-2.015625 0zm24.797852 -9.4375q-0.09375 0.125 -0.1875 0.203125q-0.09375 0.0625 -0.25 0.0625q-0.171875 0 -0.375 -0.140625q-0.203125 -0.140625 -0.515625 -0.3125q-0.296875 -0.171875 -0.734375 -0.3125q-0.4375 -0.140625 -1.0625 -0.140625q-0.84375 0 -1.5 0.296875q-0.640625 0.296875 -1.078125 0.875q-0.421875 0.5625 -0.65625 1.375q-0.21875 0.796875 -0.21875 1.78125q0 1.046875 0.234375 1.859375q0.25 0.8125 0.671875 1.359375q0.4375 0.546875 1.046875 0.84375q0.625 0.28125 1.390625 0.28125q0.734375 0 1.203125 -0.171875q0.484375 -0.171875 0.796875 -0.390625q0.328125 -0.21875 0.53125 -0.390625q0.203125 -0.171875 0.40625 -0.171875q0.265625 0 0.390625 0.1875l0.5625 0.734375q-0.75 0.921875 -1.875 1.34375q-1.125 0.421875 -2.359375 0.421875q-1.078125 0 -2.0 -0.390625q-0.921875 -0.40625 -1.609375 -1.15625q-0.671875 -0.75 -1.0625 -1.84375q-0.390625 -1.109375 -0.390625 -2.515625q0 -1.28125 0.34375 -2.359375q0.359375 -1.09375 1.046875 -1.875q0.6875 -0.78125 1.6875 -1.21875q1.015625 -0.453125 2.3125 -0.453125q1.203125 0 2.125 0.390625q0.9375 0.390625 1.65625 1.109375l-0.53125 0.71875zm7.2992554 -2.21875q1.03125 0 1.890625 0.34375q0.875 0.34375 1.5 1.0q0.640625 0.65625 1.0 1.609375q0.359375 0.953125 0.359375 2.171875q0 0.484375 -0.109375 0.640625q-0.09375 0.15625 -0.375 0.15625l-7.640625 0q0.03125 1.09375 0.296875 1.90625q0.28125 0.796875 0.75 1.34375q0.46875 0.53125 1.125 0.796875q0.671875 0.265625 1.484375 0.265625q0.75 0 1.296875 -0.171875q0.5625 -0.1875 0.953125 -0.390625q0.390625 -0.203125 0.65625 -0.375q0.265625 -0.171875 0.46875 -0.171875q0.25 0 0.375 0.1875l0.578125 0.734375q-0.375 0.453125 -0.90625 0.796875q-0.515625 0.328125 -1.109375 0.546875q-0.59375 0.203125 -1.234375 0.3125q-0.625 0.109375 -1.25 0.109375q-1.1875 0 -2.203125 -0.390625q-1.0 -0.40625 -1.734375 -1.1875q-0.71875 -0.78125 -1.125 -1.921875q-0.40625 -1.140625 -0.40625 -2.625q0 -1.203125 0.359375 -2.234375q0.375 -1.046875 1.0625 -1.8125q0.6875 -0.765625 1.6875 -1.203125q1.0 -0.4375 2.25 -0.4375zm0.03125 1.484375q-1.453125 0 -2.296875 0.84375q-0.828125 0.84375 -1.03125 2.34375l6.234375 0q0 -0.703125 -0.203125 -1.28125q-0.1875 -0.59375 -0.5625 -1.015625q-0.359375 -0.421875 -0.90625 -0.65625q-0.53125 -0.234375 -1.234375 -0.234375zm7.2938843 10.171875l0 -11.46875l1.15625 0q0.328125 0 0.453125 0.125q0.125 0.125 0.171875 0.421875l0.125 1.796875q0.59375 -1.203125 1.453125 -1.875q0.875 -0.671875 2.046875 -0.671875q0.46875 0 0.84375 0.109375q0.390625 0.09375 0.71875 0.296875l-0.25 1.5q-0.078125 0.28125 -0.359375 0.28125q-0.15625 0 -0.484375 -0.109375q-0.328125 -0.109375 -0.921875 -0.109375q-1.046875 0 -1.765625 0.625q-0.703125 0.609375 -1.171875 1.765625l0 7.3125l-2.015625 0zm12.599304 0.1875q-1.359375 0 -2.09375 -0.765625q-0.71875 -0.765625 -0.71875 -2.1875l0 -7.015625l-1.390625 0q-0.171875 0 -0.296875 -0.109375q-0.125 -0.109375 -0.125 -0.34375l0 -0.796875l1.875 -0.234375l0.46875 -3.546875q0.015625 -0.171875 0.140625 -0.28125q0.125 -0.109375 0.328125 -0.109375l1.015625 0l0 3.953125l3.28125 0l0 1.46875l-3.28125 0l0 6.875q0 0.734375 0.34375 1.09375q0.359375 0.34375 0.90625 0.34375q0.328125 0 0.546875 -0.078125q0.234375 -0.09375 0.40625 -0.1875q0.171875 -0.109375 0.28125 -0.1875q0.125 -0.09375 0.21875 -0.09375q0.15625 0 0.28125 0.1875l0.59375 0.96875q-0.515625 0.484375 -1.265625 0.765625q-0.734375 0.28125 -1.515625 0.28125zm13.403931 -0.1875l-0.890625 0q-0.296875 0 -0.484375 -0.09375q-0.171875 -0.09375 -0.234375 -0.375l-0.21875 -1.078125q-0.453125 0.40625 -0.890625 0.734375q-0.421875 0.328125 -0.90625 0.546875q-0.46875 0.21875 -1.015625 0.328125q-0.53125 0.125 -1.1875 0.125q-0.671875 0 -1.265625 -0.1875q-0.578125 -0.1875 -1.015625 -0.5625q-0.421875 -0.375 -0.671875 -0.9375q-0.25 -0.578125 -0.25 -1.359375q0 -0.6875 0.375 -1.3125q0.375 -0.625 1.203125 -1.109375q0.828125 -0.5 2.171875 -0.8125q1.359375 -0.3125 3.296875 -0.359375l0 -0.890625q0 -1.328125 -0.578125 -2.015625q-0.5625 -0.6875 -1.6875 -0.6875q-0.734375 0 -1.234375 0.1875q-0.5 0.1875 -0.875 0.421875q-0.359375 0.234375 -0.625 0.421875q-0.265625 0.171875 -0.53125 0.171875q-0.203125 0 -0.359375 -0.09375q-0.15625 -0.109375 -0.25 -0.265625l-0.359375 -0.65625q0.953125 -0.90625 2.046875 -1.359375q1.109375 -0.453125 2.4375 -0.453125q0.96875 0 1.71875 0.3125q0.75 0.3125 1.25 0.890625q0.515625 0.5625 0.765625 1.375q0.265625 0.796875 0.265625 1.75l0 7.34375zm-5.234375 -1.234375q0.53125 0 0.96875 -0.109375q0.453125 -0.109375 0.84375 -0.296875q0.390625 -0.203125 0.75 -0.484375q0.359375 -0.28125 0.6875 -0.65625l0 -2.390625q-1.390625 0.046875 -2.359375 0.234375q-0.96875 0.171875 -1.59375 0.453125q-0.609375 0.28125 -0.890625 0.671875q-0.265625 0.375 -0.265625 0.859375q0 0.453125 0.140625 0.78125q0.15625 0.328125 0.390625 0.546875q0.25 0.203125 0.59375 0.296875q0.34375 0.09375 0.734375 0.09375zm10.533691 -10.234375l0 11.46875l-2.015625 0l0 -11.46875l2.015625 0zm0.453125 -3.609375q0 0.296875 -0.125 0.546875q-0.109375 0.25 -0.3125 0.453125q-0.1875 0.203125 -0.453125 0.3125q-0.265625 0.109375 -0.546875 0.109375q-0.296875 0 -0.5625 -0.109375q-0.25 -0.109375 -0.453125 -0.3125q-0.1875 -0.203125 -0.3125 -0.453125q-0.109375 -0.25 -0.109375 -0.546875q0 -0.296875 0.109375 -0.5625q0.125 -0.265625 0.3125 -0.453125q0.203125 -0.203125 0.453125 -0.3125q0.265625 -0.125 0.5625 -0.125q0.28125 0 0.546875 0.125q0.265625 0.109375 0.453125 0.3125q0.203125 0.1875 0.3125 0.453125q0.125 0.265625 0.125 0.5625zm3.1125488 15.078125l0 -11.46875l1.203125 0q0.421875 0 0.546875 0.40625l0.15625 1.25q0.75 -0.828125 1.671875 -1.328125q0.921875 -0.515625 2.125 -0.515625q0.9375 0 1.65625 0.3125q0.734375 0.3125 1.203125 0.890625q0.484375 0.5625 0.734375 1.375q0.25 0.796875 0.25 1.765625l0 7.3125l-2.015625 0l0 -7.3125q0 -1.296875 -0.59375 -2.015625q-0.59375 -0.71875 -1.8125 -0.71875q-0.90625 0 -1.6875 0.4375q-0.765625 0.421875 -1.421875 1.15625l0 8.453125l-2.015625 0zm23.532227 -9.578125q-0.125 0.25 -0.40625 0.25q-0.171875 0 -0.390625 -0.125q-0.21875 -0.125 -0.53125 -0.28125q-0.3125 -0.15625 -0.75 -0.28125q-0.421875 -0.140625 -1.015625 -0.140625q-0.5 0 -0.90625 0.140625q-0.40625 0.125 -0.703125 0.359375q-0.28125 0.21875 -0.4375 0.515625q-0.15625 0.296875 -0.15625 0.65625q0 0.4375 0.25 0.734375q0.265625 0.296875 0.671875 0.515625q0.421875 0.203125 0.953125 0.375q0.53125 0.171875 1.09375 0.359375q0.5625 0.171875 1.09375 0.40625q0.53125 0.21875 0.953125 0.5625q0.421875 0.34375 0.671875 0.84375q0.265625 0.484375 0.265625 1.171875q0 0.796875 -0.296875 1.46875q-0.28125 0.671875 -0.84375 1.171875q-0.546875 0.484375 -1.359375 0.78125q-0.796875 0.28125 -1.84375 0.28125q-1.203125 0 -2.1875 -0.390625q-0.96875 -0.390625 -1.640625 -1.015625l0.46875 -0.765625q0.09375 -0.140625 0.21875 -0.21875q0.125 -0.078125 0.328125 -0.078125q0.203125 0 0.421875 0.15625q0.234375 0.15625 0.5625 0.34375q0.328125 0.1875 0.78125 0.359375q0.453125 0.15625 1.15625 0.15625q0.578125 0 1.015625 -0.15625q0.453125 -0.15625 0.734375 -0.40625q0.296875 -0.265625 0.4375 -0.609375q0.15625 -0.34375 0.15625 -0.71875q0 -0.484375 -0.265625 -0.796875q-0.25 -0.3125 -0.671875 -0.53125q-0.421875 -0.21875 -0.96875 -0.375q-0.53125 -0.171875 -1.09375 -0.34375q-0.546875 -0.1875 -1.09375 -0.421875q-0.53125 -0.234375 -0.953125 -0.578125q-0.421875 -0.359375 -0.671875 -0.875q-0.25 -0.515625 -0.25 -1.25q0 -0.65625 0.265625 -1.265625q0.265625 -0.609375 0.78125 -1.0625q0.53125 -0.453125 1.28125 -0.71875q0.765625 -0.28125 1.75 -0.28125q1.125 0 2.015625 0.359375q0.90625 0.359375 1.5625 0.984375l-0.453125 0.734375zm6.7391357 9.765625q-1.359375 0 -2.09375 -0.765625q-0.71875 -0.765625 -0.71875 -2.1875l0 -7.015625l-1.390625 0q-0.171875 0 -0.296875 -0.109375q-0.125 -0.109375 -0.125 -0.34375l0 -0.796875l1.875 -0.234375l0.46875 -3.546875q0.015625 -0.171875 0.140625 -0.28125q0.125 -0.109375 0.328125 -0.109375l1.015625 0l0 3.953125l3.28125 0l0 1.46875l-3.28125 0l0 6.875q0 0.734375 0.34375 1.09375q0.359375 0.34375 0.90625 0.34375q0.328125 0 0.546875 -0.078125q0.234375 -0.09375 0.40625 -0.1875q0.171875 -0.109375 0.28125 -0.1875q0.125 -0.09375 0.21875 -0.09375q0.15625 0 0.28125 0.1875l0.59375 0.96875q-0.515625 0.484375 -1.265625 0.765625q-0.734375 0.28125 -1.515625 0.28125zm8.341492 3.203125q-0.09375 0.21875 -0.25 0.359375q-0.15625 0.140625 -0.46875 0.140625l-1.5 0l2.09375 -4.5625l-4.734375 -10.796875l1.75 0q0.25 0 0.390625 0.125q0.15625 0.125 0.234375 0.28125l3.0625 7.234375q0.109375 0.25 0.171875 0.5q0.078125 0.25 0.140625 0.5q0.078125 -0.25 0.15625 -0.5q0.078125 -0.25 0.171875 -0.515625l2.984375 -7.21875q0.078125 -0.171875 0.234375 -0.28125q0.171875 -0.125 0.359375 -0.125l1.609375 0l-6.40625 14.859375zm10.475098 -20.078125l0 16.6875l-2.015625 0l0 -16.6875l2.015625 0zm8.112549 5.03125q1.03125 0 1.890625 0.34375q0.875 0.34375 1.5 1.0q0.640625 0.65625 1.0 1.609375q0.359375 0.953125 0.359375 2.171875q0 0.484375 -0.109375 0.640625q-0.09375 0.15625 -0.375 0.15625l-7.640625 0q0.03125 1.09375 0.296875 1.90625q0.28125 0.796875 0.75 1.34375q0.46875 0.53125 1.125 0.796875q0.671875 0.265625 1.484375 0.265625q0.75 0 1.296875 -0.171875q0.5625 -0.1875 0.953125 -0.390625q0.390625 -0.203125 0.65625 -0.375q0.265625 -0.171875 0.46875 -0.171875q0.25 0 0.375 0.1875l0.578125 0.734375q-0.375 0.453125 -0.90625 0.796875q-0.515625 0.328125 -1.109375 0.546875q-0.59375 0.203125 -1.234375 0.3125q-0.625 0.109375 -1.25 0.109375q-1.1875 0 -2.203125 -0.390625q-1.0 -0.40625 -1.734375 -1.1875q-0.71875 -0.78125 -1.125 -1.921875q-0.40625 -1.140625 -0.40625 -2.625q0 -1.203125 0.359375 -2.234375q0.375 -1.046875 1.0625 -1.8125q0.6875 -0.765625 1.6875 -1.203125q1.0 -0.4375 2.25 -0.4375zm0.03125 1.484375q-1.453125 0 -2.296875 0.84375q-0.828125 0.84375 -1.03125 2.34375l6.234375 0q0 -0.703125 -0.203125 -1.28125q-0.1875 -0.59375 -0.5625 -1.015625q-0.359375 -0.421875 -0.90625 -0.65625q-0.53125 -0.234375 -1.234375 -0.234375z" fill-rule="nonzero"/><path fill="#ffffff" d="m544.74194 298.17438q1.21875 0 2.390625 0.640625q1.171875 0.625 1.828125 1.796875q0.65625 1.171875 0.65625 2.4375q0 2.015625 -1.4375 3.453125q-1.421875 1.421875 -3.4375 1.421875q-2.015625 0 -3.453125 -1.421875q-1.421875 -1.4375 -1.421875 -3.453125q0 -1.28125 0.65625 -2.4375q0.65625 -1.171875 1.828125 -1.796875q1.171875 -0.640625 2.390625 -0.640625z" fill-rule="nonzero"/><path fill="#ffffff" d="m575.73895 293.20563l1.828125 0q0.296875 0 0.484375 0.15625q0.1875 0.140625 0.265625 0.359375l3.34375 11.296875q0.09375 0.296875 0.171875 0.65625q0.078125 0.34375 0.140625 0.734375q0.078125 -0.390625 0.15625 -0.75q0.078125 -0.359375 0.1875 -0.640625l3.8125 -11.296875q0.0625 -0.1875 0.265625 -0.34375q0.203125 -0.171875 0.484375 -0.171875l0.625 0q0.296875 0 0.484375 0.15625q0.1875 0.140625 0.265625 0.359375l3.796875 11.296875q0.203125 0.578125 0.359375 1.34375q0.078125 -0.375 0.125 -0.71875q0.0625 -0.34375 0.15625 -0.625l3.359375 -11.296875q0.0625 -0.203125 0.25 -0.359375q0.203125 -0.15625 0.484375 -0.15625l1.71875 0l-5.0625 16.234375l-1.984375 0l-4.109375 -12.375q-0.125 -0.359375 -0.21875 -0.828125q-0.0625 0.234375 -0.109375 0.453125q-0.046875 0.203125 -0.109375 0.375l-4.140625 12.375l-1.96875 0l-5.0625 -16.234375zm24.586914 16.234375l0 -11.46875l1.15625 0q0.328125 0 0.453125 0.125q0.125 0.125 0.171875 0.421875l0.125 1.796875q0.59375 -1.203125 1.453125 -1.875q0.875 -0.671875 2.046875 -0.671875q0.46875 0 0.84375 0.109375q0.390625 0.09375 0.71875 0.296875l-0.25 1.5q-0.078125 0.28125 -0.359375 0.28125q-0.15625 0 -0.484375 -0.109375q-0.328125 -0.109375 -0.921875 -0.109375q-1.046875 0 -1.765625 0.625q-0.703125 0.609375 -1.171875 1.765625l0 7.3125l-2.015625 0zm11.364868 -11.46875l0 11.46875l-2.015625 0l0 -11.46875l2.015625 0zm0.453125 -3.609375q0 0.296875 -0.125 0.546875q-0.109375 0.25 -0.3125 0.453125q-0.1875 0.203125 -0.453125 0.3125q-0.265625 0.109375 -0.546875 0.109375q-0.296875 0 -0.5625 -0.109375q-0.25 -0.109375 -0.453125 -0.3125q-0.1875 -0.203125 -0.3125 -0.453125q-0.109375 -0.25 -0.109375 -0.546875q0 -0.296875 0.109375 -0.5625q0.125 -0.265625 0.3125 -0.453125q0.203125 -0.203125 0.453125 -0.3125q0.265625 -0.125 0.5625 -0.125q0.28125 0 0.546875 0.125q0.265625 0.109375 0.453125 0.3125q0.203125 0.1875 0.3125 0.453125q0.125 0.265625 0.125 0.5625zm6.581299 15.265625q-1.359375 0 -2.09375 -0.765625q-0.71875 -0.765625 -0.71875 -2.1875l0 -7.015625l-1.390625 0q-0.171875 0 -0.296875 -0.109375q-0.125 -0.109375 -0.125 -0.34375l0 -0.796875l1.875 -0.234375l0.46875 -3.546875q0.015625 -0.171875 0.140625 -0.28125q0.125 -0.109375 0.328125 -0.109375l1.015625 0l0 3.953125l3.28125 0l0 1.46875l-3.28125 0l0 6.875q0 0.734375 0.34375 1.09375q0.359375 0.34375 0.90625 0.34375q0.328125 0 0.546875 -0.078125q0.234375 -0.09375 0.40625 -0.1875q0.171875 -0.109375 0.28125 -0.1875q0.125 -0.09375 0.21875 -0.09375q0.15625 0 0.28125 0.1875l0.59375 0.96875q-0.515625 0.484375 -1.265625 0.765625q-0.734375 0.28125 -1.515625 0.28125zm9.528992 -11.84375q1.03125 0 1.890625 0.34375q0.875 0.34375 1.5 1.0q0.640625 0.65625 1.0 1.609375q0.359375 0.953125 0.359375 2.171875q0 0.484375 -0.109375 0.640625q-0.09375 0.15625 -0.375 0.15625l-7.640625 0q0.03125 1.09375 0.296875 1.90625q0.28125 0.796875 0.75 1.34375q0.46875 0.53125 1.125 0.796875q0.671875 0.265625 1.484375 0.265625q0.75 0 1.296875 -0.171875q0.5625 -0.1875 0.953125 -0.390625q0.390625 -0.203125 0.65625 -0.375q0.265625 -0.171875 0.46875 -0.171875q0.25 0 0.375 0.1875l0.578125 0.734375q-0.375 0.453125 -0.90625 0.796875q-0.515625 0.328125 -1.109375 0.546875q-0.59375 0.203125 -1.234375 0.3125q-0.625 0.109375 -1.25 0.109375q-1.1875 0 -2.203125 -0.390625q-1.0 -0.40625 -1.734375 -1.1875q-0.71875 -0.78125 -1.125 -1.921875q-0.40625 -1.140625 -0.40625 -2.625q0 -1.203125 0.359375 -2.234375q0.375 -1.046875 1.0625 -1.8125q0.6875 -0.765625 1.6875 -1.203125q1.0 -0.4375 2.25 -0.4375zm0.03125 1.484375q-1.453125 0 -2.296875 0.84375q-0.828125 0.84375 -1.03125 2.34375l6.234375 0q0 -0.703125 -0.203125 -1.28125q-0.1875 -0.59375 -0.5625 -1.015625q-0.359375 -0.421875 -0.90625 -0.65625q-0.53125 -0.234375 -1.234375 -0.234375zm15.135315 10.359375q-1.359375 0 -2.09375 -0.765625q-0.71875 -0.765625 -0.71875 -2.1875l0 -7.015625l-1.390625 0q-0.171875 0 -0.296875 -0.109375q-0.125 -0.109375 -0.125 -0.34375l0 -0.796875l1.875 -0.234375l0.46875 -3.546875q0.015625 -0.171875 0.140625 -0.28125q0.125 -0.109375 0.328125 -0.109375l1.015625 0l0 3.953125l3.28125 0l0 1.46875l-3.28125 0l0 6.875q0 0.734375 0.34375 1.09375q0.359375 0.34375 0.90625 0.34375q0.328125 0 0.546875 -0.078125q0.234375 -0.09375 0.40625 -0.1875q0.171875 -0.109375 0.28125 -0.1875q0.125 -0.09375 0.21875 -0.09375q0.15625 0 0.28125 0.1875l0.59375 0.96875q-0.515625 0.484375 -1.265625 0.765625q-0.734375 0.28125 -1.515625 0.28125zm4.9821167 -0.1875l0 -16.6875l2.015625 0l0 6.75q0.734375 -0.78125 1.625 -1.25q0.90625 -0.46875 2.0625 -0.46875q0.9375 0 1.65625 0.3125q0.734375 0.3125 1.203125 0.890625q0.484375 0.5625 0.734375 1.375q0.25 0.796875 0.25 1.765625l0 7.3125l-2.015625 0l0 -7.3125q0 -1.296875 -0.59375 -2.015625q-0.59375 -0.71875 -1.8125 -0.71875q-0.90625 0 -1.6875 0.4375q-0.765625 0.421875 -1.421875 1.15625l0 8.453125l-2.015625 0zm21.01886 0l-0.890625 0q-0.296875 0 -0.484375 -0.09375q-0.171875 -0.09375 -0.234375 -0.375l-0.21875 -1.078125q-0.453125 0.40625 -0.890625 0.734375q-0.421875 0.328125 -0.90625 0.546875q-0.46875 0.21875 -1.015625 0.328125q-0.53125 0.125 -1.1875 0.125q-0.671875 0 -1.265625 -0.1875q-0.578125 -0.1875 -1.015625 -0.5625q-0.421875 -0.375 -0.671875 -0.9375q-0.25 -0.578125 -0.25 -1.359375q0 -0.6875 0.375 -1.3125q0.375 -0.625 1.203125 -1.109375q0.828125 -0.5 2.171875 -0.8125q1.359375 -0.3125 3.296875 -0.359375l0 -0.890625q0 -1.328125 -0.578125 -2.015625q-0.5625 -0.6875 -1.6875 -0.6875q-0.734375 0 -1.234375 0.1875q-0.5 0.1875 -0.875 0.421875q-0.359375 0.234375 -0.625 0.421875q-0.265625 0.171875 -0.53125 0.171875q-0.203125 0 -0.359375 -0.09375q-0.15625 -0.109375 -0.25 -0.265625l-0.359375 -0.65625q0.953125 -0.90625 2.046875 -1.359375q1.109375 -0.453125 2.4375 -0.453125q0.96875 0 1.71875 0.3125q0.75 0.3125 1.25 0.890625q0.515625 0.5625 0.765625 1.375q0.265625 0.796875 0.265625 1.75l0 7.34375zm-5.234375 -1.234375q0.53125 0 0.96875 -0.109375q0.453125 -0.109375 0.84375 -0.296875q0.390625 -0.203125 0.75 -0.484375q0.359375 -0.28125 0.6875 -0.65625l0 -2.390625q-1.390625 0.046875 -2.359375 0.234375q-0.96875 0.171875 -1.59375 0.453125q-0.609375 0.28125 -0.890625 0.671875q-0.265625 0.375 -0.265625 0.859375q0 0.453125 0.140625 0.78125q0.15625 0.328125 0.390625 0.546875q0.25 0.203125 0.59375 0.296875q0.34375 0.09375 0.734375 0.09375zm11.768066 1.421875q-1.359375 0 -2.09375 -0.765625q-0.71875 -0.765625 -0.71875 -2.1875l0 -7.015625l-1.390625 0q-0.171875 0 -0.296875 -0.109375q-0.125 -0.109375 -0.125 -0.34375l0 -0.796875l1.875 -0.234375l0.46875 -3.546875q0.015625 -0.171875 0.140625 -0.28125q0.125 -0.109375 0.328125 -0.109375l1.015625 0l0 3.953125l3.28125 0l0 1.46875l-3.28125 0l0 6.875q0 0.734375 0.34375 1.09375q0.359375 0.34375 0.90625 0.34375q0.328125 0 0.546875 -0.078125q0.234375 -0.09375 0.40625 -0.1875q0.171875 -0.109375 0.28125 -0.1875q0.125 -0.09375 0.21875 -0.09375q0.15625 0 0.28125 0.1875l0.59375 0.96875q-0.515625 0.484375 -1.265625 0.765625q-0.734375 0.28125 -1.515625 0.28125zm13.901672 -11.84375q1.03125 0 1.890625 0.34375q0.875 0.34375 1.5 1.0q0.640625 0.65625 1.0 1.609375q0.359375 0.953125 0.359375 2.171875q0 0.484375 -0.109375 0.640625q-0.09375 0.15625 -0.375 0.15625l-7.640625 0q0.03125 1.09375 0.296875 1.90625q0.28125 0.796875 0.75 1.34375q0.46875 0.53125 1.125 0.796875q0.671875 0.265625 1.484375 0.265625q0.75 0 1.296875 -0.171875q0.5625 -0.1875 0.953125 -0.390625q0.390625 -0.203125 0.65625 -0.375q0.265625 -0.171875 0.46875 -0.171875q0.25 0 0.375 0.1875l0.578125 0.734375q-0.375 0.453125 -0.90625 0.796875q-0.515625 0.328125 -1.109375 0.546875q-0.59375 0.203125 -1.234375 0.3125q-0.625 0.109375 -1.25 0.109375q-1.1875 0 -2.203125 -0.390625q-1.0 -0.40625 -1.734375 -1.1875q-0.71875 -0.78125 -1.125 -1.921875q-0.40625 -1.140625 -0.40625 -2.625q0 -1.203125 0.359375 -2.234375q0.375 -1.046875 1.0625 -1.8125q0.6875 -0.765625 1.6875 -1.203125q1.0 -0.4375 2.25 -0.4375zm0.03125 1.484375q-1.453125 0 -2.296875 0.84375q-0.828125 0.84375 -1.03125 2.34375l6.234375 0q0 -0.703125 -0.203125 -1.28125q-0.1875 -0.59375 -0.5625 -1.015625q-0.359375 -0.421875 -0.90625 -0.65625q-0.53125 -0.234375 -1.234375 -0.234375zm13.856323 0.59375q-0.125 0.25 -0.40625 0.25q-0.171875 0 -0.390625 -0.125q-0.21875 -0.125 -0.53125 -0.28125q-0.3125 -0.15625 -0.75 -0.28125q-0.421875 -0.140625 -1.015625 -0.140625q-0.5 0 -0.90625 0.140625q-0.40625 0.125 -0.703125 0.359375q-0.28125 0.21875 -0.4375 0.515625q-0.15625 0.296875 -0.15625 0.65625q0 0.4375 0.25 0.734375q0.265625 0.296875 0.671875 0.515625q0.421875 0.203125 0.953125 0.375q0.53125 0.171875 1.09375 0.359375q0.5625 0.171875 1.09375 0.40625q0.53125 0.21875 0.953125 0.5625q0.421875 0.34375 0.671875 0.84375q0.265625 0.484375 0.265625 1.171875q0 0.796875 -0.296875 1.46875q-0.28125 0.671875 -0.84375 1.171875q-0.546875 0.484375 -1.359375 0.78125q-0.796875 0.28125 -1.84375 0.28125q-1.203125 0 -2.1875 -0.390625q-0.96875 -0.390625 -1.640625 -1.015625l0.46875 -0.765625q0.09375 -0.140625 0.21875 -0.21875q0.125 -0.078125 0.328125 -0.078125q0.203125 0 0.421875 0.15625q0.234375 0.15625 0.5625 0.34375q0.328125 0.1875 0.78125 0.359375q0.453125 0.15625 1.15625 0.15625q0.578125 0 1.015625 -0.15625q0.453125 -0.15625 0.734375 -0.40625q0.296875 -0.265625 0.4375 -0.609375q0.15625 -0.34375 0.15625 -0.71875q0 -0.484375 -0.265625 -0.796875q-0.25 -0.3125 -0.671875 -0.53125q-0.421875 -0.21875 -0.96875 -0.375q-0.53125 -0.171875 -1.09375 -0.34375q-0.546875 -0.1875 -1.09375 -0.421875q-0.53125 -0.234375 -0.953125 -0.578125q-0.421875 -0.359375 -0.671875 -0.875q-0.25 -0.515625 -0.25 -1.25q0 -0.65625 0.265625 -1.265625q0.265625 -0.609375 0.78125 -1.0625q0.53125 -0.453125 1.28125 -0.71875q0.765625 -0.28125 1.75 -0.28125q1.125 0 2.015625 0.359375q0.90625 0.359375 1.5625 0.984375l-0.453125 0.734375zm9.832886 0q-0.125 0.25 -0.40625 0.25q-0.171875 0 -0.390625 -0.125q-0.21875 -0.125 -0.53125 -0.28125q-0.3125 -0.15625 -0.75 -0.28125q-0.421875 -0.140625 -1.015625 -0.140625q-0.5 0 -0.90625 0.140625q-0.40625 0.125 -0.703125 0.359375q-0.28125 0.21875 -0.4375 0.515625q-0.15625 0.296875 -0.15625 0.65625q0 0.4375 0.25 0.734375q0.265625 0.296875 0.671875 0.515625q0.421875 0.203125 0.953125 0.375q0.53125 0.171875 1.09375 0.359375q0.5625 0.171875 1.09375 0.40625q0.53125 0.21875 0.953125 0.5625q0.421875 0.34375 0.671875 0.84375q0.265625 0.484375 0.265625 1.171875q0 0.796875 -0.296875 1.46875q-0.28125 0.671875 -0.84375 1.171875q-0.546875 0.484375 -1.359375 0.78125q-0.796875 0.28125 -1.84375 0.28125q-1.203125 0 -2.1875 -0.390625q-0.96875 -0.390625 -1.640625 -1.015625l0.46875 -0.765625q0.09375 -0.140625 0.21875 -0.21875q0.125 -0.078125 0.328125 -0.078125q0.203125 0 0.421875 0.15625q0.234375 0.15625 0.5625 0.34375q0.328125 0.1875 0.78125 0.359375q0.453125 0.15625 1.15625 0.15625q0.578125 0 1.015625 -0.15625q0.453125 -0.15625 0.734375 -0.40625q0.296875 -0.265625 0.4375 -0.609375q0.15625 -0.34375 0.15625 -0.71875q0 -0.484375 -0.265625 -0.796875q-0.25 -0.3125 -0.671875 -0.53125q-0.421875 -0.21875 -0.96875 -0.375q-0.53125 -0.171875 -1.09375 -0.34375q-0.546875 -0.1875 -1.09375 -0.421875q-0.53125 -0.234375 -0.953125 -0.578125q-0.421875 -0.359375 -0.671875 -0.875q-0.25 -0.515625 -0.25 -1.25q0 -0.65625 0.265625 -1.265625q0.265625 -0.609375 0.78125 -1.0625q0.53125 -0.453125 1.28125 -0.71875q0.765625 -0.28125 1.75 -0.28125q1.125 0 2.015625 0.359375q0.90625 0.359375 1.5625 0.984375l-0.453125 0.734375zm11.692322 9.578125l-0.890625 0q-0.296875 0 -0.484375 -0.09375q-0.171875 -0.09375 -0.234375 -0.375l-0.21875 -1.078125q-0.453125 0.40625 -0.890625 0.734375q-0.421875 0.328125 -0.90625 0.546875q-0.46875 0.21875 -1.015625 0.328125q-0.53125 0.125 -1.1875 0.125q-0.671875 0 -1.265625 -0.1875q-0.578125 -0.1875 -1.015625 -0.5625q-0.421875 -0.375 -0.671875 -0.9375q-0.25 -0.578125 -0.25 -1.359375q0 -0.6875 0.375 -1.3125q0.375 -0.625 1.203125 -1.109375q0.828125 -0.5 2.171875 -0.8125q1.359375 -0.3125 3.296875 -0.359375l0 -0.890625q0 -1.328125 -0.578125 -2.015625q-0.5625 -0.6875 -1.6875 -0.6875q-0.734375 0 -1.234375 0.1875q-0.5 0.1875 -0.875 0.421875q-0.359375 0.234375 -0.625 0.421875q-0.265625 0.171875 -0.53125 0.171875q-0.203125 0 -0.359375 -0.09375q-0.15625 -0.109375 -0.25 -0.265625l-0.359375 -0.65625q0.953125 -0.90625 2.046875 -1.359375q1.109375 -0.453125 2.4375 -0.453125q0.96875 0 1.71875 0.3125q0.75 0.3125 1.25 0.890625q0.515625 0.5625 0.765625 1.375q0.265625 0.796875 0.265625 1.75l0 7.34375zm-5.234375 -1.234375q0.53125 0 0.96875 -0.109375q0.453125 -0.109375 0.84375 -0.296875q0.390625 -0.203125 0.75 -0.484375q0.359375 -0.28125 0.6875 -0.65625l0 -2.390625q-1.390625 0.046875 -2.359375 0.234375q-0.96875 0.171875 -1.59375 0.453125q-0.609375 0.28125 -0.890625 0.671875q-0.265625 0.375 -0.265625 0.859375q0 0.453125 0.140625 0.78125q0.15625 0.328125 0.390625 0.546875q0.25 0.203125 0.59375 0.296875q0.34375 0.09375 0.734375 0.09375zm11.2960205 4.625q-0.09375 0.21875 -0.25 0.359375q-0.15625 0.140625 -0.46875 0.140625l-1.5 0l2.09375 -4.5625l-4.734375 -10.796875l1.75 0q0.25 0 0.390625 0.125q0.15625 0.125 0.234375 0.28125l3.0625 7.234375q0.109375 0.25 0.171875 0.5q0.078125 0.25 0.140625 0.5q0.078125 -0.25 0.15625 -0.5q0.078125 -0.25 0.171875 -0.515625l2.984375 -7.21875q0.078125 -0.171875 0.234375 -0.28125q0.171875 -0.125 0.359375 -0.125l1.609375 0l-6.40625 14.859375zm21.035278 -3.390625l-0.890625 0q-0.296875 0 -0.484375 -0.09375q-0.171875 -0.09375 -0.234375 -0.375l-0.21875 -1.078125q-0.453125 0.40625 -0.890625 0.734375q-0.421875 0.328125 -0.90625 0.546875q-0.46875 0.21875 -1.015625 0.328125q-0.53125 0.125 -1.1875 0.125q-0.671875 0 -1.265625 -0.1875q-0.578125 -0.1875 -1.015625 -0.5625q-0.421875 -0.375 -0.671875 -0.9375q-0.25 -0.578125 -0.25 -1.359375q0 -0.6875 0.375 -1.3125q0.375 -0.625 1.203125 -1.109375q0.828125 -0.5 2.171875 -0.8125q1.359375 -0.3125 3.296875 -0.359375l0 -0.890625q0 -1.328125 -0.578125 -2.015625q-0.5625 -0.6875 -1.6875 -0.6875q-0.734375 0 -1.234375 0.1875q-0.5 0.1875 -0.875 0.421875q-0.359375 0.234375 -0.625 0.421875q-0.265625 0.171875 -0.53125 0.171875q-0.203125 0 -0.359375 -0.09375q-0.15625 -0.109375 -0.25 -0.265625l-0.359375 -0.65625q0.953125 -0.90625 2.046875 -1.359375q1.109375 -0.453125 2.4375 -0.453125q0.96875 0 1.71875 0.3125q0.75 0.3125 1.25 0.890625q0.515625 0.5625 0.765625 1.375q0.265625 0.796875 0.265625 1.75l0 7.34375zm-5.234375 -1.234375q0.53125 0 0.96875 -0.109375q0.453125 -0.109375 0.84375 -0.296875q0.390625 -0.203125 0.75 -0.484375q0.359375 -0.28125 0.6875 -0.65625l0 -2.390625q-1.390625 0.046875 -2.359375 0.234375q-0.96875 0.171875 -1.59375 0.453125q-0.609375 0.28125 -0.890625 0.671875q-0.265625 0.375 -0.265625 0.859375q0 0.453125 0.140625 0.78125q0.15625 0.328125 0.390625 0.546875q0.25 0.203125 0.59375 0.296875q0.34375 0.09375 0.734375 0.09375zm10.049316 -10.234375l0 7.3125q0 1.296875 0.59375 2.015625q0.59375 0.71875 1.8125 0.71875q0.875 0 1.65625 -0.421875q0.796875 -0.421875 1.453125 -1.171875l0 -8.453125l2.015625 0l0 11.46875l-1.203125 0q-0.4375 0 -0.546875 -0.421875l-0.15625 -1.234375q-0.75 0.828125 -1.6875 1.34375q-0.921875 0.5 -2.125 0.5q-0.9375 0 -1.65625 -0.3125q-0.71875 -0.3125 -1.203125 -0.875q-0.484375 -0.578125 -0.734375 -1.375q-0.25 -0.8125 -0.25 -1.78125l0 -7.3125l2.03125 0zm14.315735 11.65625q-1.359375 0 -2.09375 -0.765625q-0.71875 -0.765625 -0.71875 -2.1875l0 -7.015625l-1.390625 0q-0.171875 0 -0.296875 -0.109375q-0.125 -0.109375 -0.125 -0.34375l0 -0.796875l1.875 -0.234375l0.46875 -3.546875q0.015625 -0.171875 0.140625 -0.28125q0.125 -0.109375 0.328125 -0.109375l1.015625 0l0 3.953125l3.28125 0l0 1.46875l-3.28125 0l0 6.875q0 0.734375 0.34375 1.09375q0.359375 0.34375 0.90625 0.34375q0.328125 0 0.546875 -0.078125q0.234375 -0.09375 0.40625 -0.1875q0.171875 -0.109375 0.28125 -0.1875q0.125 -0.09375 0.21875 -0.09375q0.15625 0 0.28125 0.1875l0.59375 0.96875q-0.515625 0.484375 -1.265625 0.765625q-0.734375 0.28125 -1.515625 0.28125zm9.622742 -11.84375q1.265625 0 2.265625 0.421875q1.015625 0.421875 1.71875 1.1875q0.71875 0.765625 1.09375 1.859375q0.390625 1.09375 0.390625 2.4375q0 1.359375 -0.390625 2.453125q-0.375 1.09375 -1.09375 1.859375q-0.703125 0.765625 -1.71875 1.1875q-1.0 0.40625 -2.265625 0.40625q-1.25 0 -2.265625 -0.40625q-1.015625 -0.421875 -1.734375 -1.1875q-0.703125 -0.765625 -1.09375 -1.859375q-0.390625 -1.09375 -0.390625 -2.453125q0 -1.34375 0.390625 -2.4375q0.390625 -1.09375 1.09375 -1.859375q0.71875 -0.765625 1.734375 -1.1875q1.015625 -0.421875 2.265625 -0.421875zm0 10.234375q1.703125 0 2.53125 -1.125q0.84375 -1.140625 0.84375 -3.1875q0 -2.046875 -0.84375 -3.1875q-0.828125 -1.15625 -2.53125 -1.15625q-0.859375 0 -1.5 0.296875q-0.625 0.296875 -1.0625 0.859375q-0.421875 0.546875 -0.625 1.359375q-0.203125 0.8125 -0.203125 1.828125q0 1.015625 0.203125 1.828125q0.203125 0.796875 0.625 1.359375q0.4375 0.546875 1.0625 0.84375q0.640625 0.28125 1.5 0.28125zm7.95636 1.421875l0 -11.46875l1.203125 0q0.421875 0 0.546875 0.40625l0.140625 1.1875q0.640625 -0.78125 1.421875 -1.28125q0.78125 -0.5 1.828125 -0.5q1.171875 0 1.890625 0.65625q0.71875 0.640625 1.03125 1.734375q0.234375 -0.625 0.625 -1.078125q0.390625 -0.453125 0.875 -0.75q0.5 -0.296875 1.046875 -0.421875q0.546875 -0.140625 1.109375 -0.140625q0.90625 0 1.609375 0.296875q0.71875 0.28125 1.203125 0.84375q0.5 0.546875 0.75 1.359375q0.265625 0.8125 0.265625 1.84375l0 7.3125l-2.015625 0l0 -7.3125q0 -1.34375 -0.59375 -2.03125q-0.578125 -0.703125 -1.703125 -0.703125q-0.5 0 -0.953125 0.171875q-0.4375 0.171875 -0.78125 0.515625q-0.34375 0.34375 -0.546875 0.859375q-0.1875 0.515625 -0.1875 1.1875l0 7.3125l-2.015625 0l0 -7.3125q0 -1.375 -0.5625 -2.046875q-0.546875 -0.6875 -1.609375 -0.6875q-0.75 0 -1.390625 0.40625q-0.640625 0.390625 -1.171875 1.09375l0 8.546875l-2.015625 0zm27.022827 0l-0.890625 0q-0.296875 0 -0.484375 -0.09375q-0.171875 -0.09375 -0.234375 -0.375l-0.21875 -1.078125q-0.453125 0.40625 -0.890625 0.734375q-0.421875 0.328125 -0.90625 0.546875q-0.46875 0.21875 -1.015625 0.328125q-0.53125 0.125 -1.1875 0.125q-0.671875 0 -1.265625 -0.1875q-0.578125 -0.1875 -1.015625 -0.5625q-0.421875 -0.375 -0.671875 -0.9375q-0.25 -0.578125 -0.25 -1.359375q0 -0.6875 0.375 -1.3125q0.375 -0.625 1.203125 -1.109375q0.828125 -0.5 2.171875 -0.8125q1.359375 -0.3125 3.296875 -0.359375l0 -0.890625q0 -1.328125 -0.578125 -2.015625q-0.5625 -0.6875 -1.6875 -0.6875q-0.734375 0 -1.234375 0.1875q-0.5 0.1875 -0.875 0.421875q-0.359375 0.234375 -0.625 0.421875q-0.265625 0.171875 -0.53125 0.171875q-0.203125 0 -0.359375 -0.09375q-0.15625 -0.109375 -0.25 -0.265625l-0.359375 -0.65625q0.953125 -0.90625 2.046875 -1.359375q1.109375 -0.453125 2.4375 -0.453125q0.96875 0 1.71875 0.3125q0.75 0.3125 1.25 0.890625q0.515625 0.5625 0.765625 1.375q0.265625 0.796875 0.265625 1.75l0 7.34375zm-5.234375 -1.234375q0.53125 0 0.96875 -0.109375q0.453125 -0.109375 0.84375 -0.296875q0.390625 -0.203125 0.75 -0.484375q0.359375 -0.28125 0.6875 -0.65625l0 -2.390625q-1.390625 0.046875 -2.359375 0.234375q-0.96875 0.171875 -1.59375 0.453125q-0.609375 0.28125 -0.890625 0.671875q-0.265625 0.375 -0.265625 0.859375q0 0.453125 0.140625 0.78125q0.15625 0.328125 0.390625 0.546875q0.25 0.203125 0.59375 0.296875q0.34375 0.09375 0.734375 0.09375zm11.768066 1.421875q-1.359375 0 -2.09375 -0.765625q-0.71875 -0.765625 -0.71875 -2.1875l0 -7.015625l-1.390625 0q-0.171875 0 -0.296875 -0.109375q-0.125 -0.109375 -0.125 -0.34375l0 -0.796875l1.875 -0.234375l0.46875 -3.546875q0.015625 -0.171875 0.140625 -0.28125q0.125 -0.109375 0.328125 -0.109375l1.015625 0l0 3.953125l3.28125 0l0 1.46875l-3.28125 0l0 6.875q0 0.734375 0.34375 1.09375q0.359375 0.34375 0.90625 0.34375q0.328125 0 0.546875 -0.078125q0.234375 -0.09375 0.40625 -0.1875q0.171875 -0.109375 0.28125 -0.1875q0.125 -0.09375 0.21875 -0.09375q0.15625 0 0.28125 0.1875l0.59375 0.96875q-0.515625 0.484375 -1.265625 0.765625q-0.734375 0.28125 -1.515625 0.28125zm7.2164307 -11.65625l0 11.46875l-2.015625 0l0 -11.46875l2.015625 0zm0.453125 -3.609375q0 0.296875 -0.125 0.546875q-0.109375 0.25 -0.3125 0.453125q-0.1875 0.203125 -0.453125 0.3125q-0.265625 0.109375 -0.546875 0.109375q-0.296875 0 -0.5625 -0.109375q-0.25 -0.109375 -0.453125 -0.3125q-0.1875 -0.203125 -0.3125 -0.453125q-0.109375 -0.25 -0.109375 -0.546875q0 -0.296875 0.109375 -0.5625q0.125 -0.265625 0.3125 -0.453125q0.203125 -0.203125 0.453125 -0.3125q0.265625 -0.125 0.5625 -0.125q0.28125 0 0.546875 0.125q0.265625 0.109375 0.453125 0.3125q0.203125 0.1875 0.3125 0.453125q0.125 0.265625 0.125 0.5625zm10.940674 5.640625q-0.09375 0.125 -0.1875 0.203125q-0.09375 0.0625 -0.25 0.0625q-0.171875 0 -0.375 -0.140625q-0.203125 -0.140625 -0.515625 -0.3125q-0.296875 -0.171875 -0.734375 -0.3125q-0.4375 -0.140625 -1.0625 -0.140625q-0.84375 0 -1.5 0.296875q-0.640625 0.296875 -1.078125 0.875q-0.421875 0.5625 -0.65625 1.375q-0.21875 0.796875 -0.21875 1.78125q0 1.046875 0.234375 1.859375q0.25 0.8125 0.671875 1.359375q0.4375 0.546875 1.046875 0.84375q0.625 0.28125 1.390625 0.28125q0.734375 0 1.203125 -0.171875q0.484375 -0.171875 0.796875 -0.390625q0.328125 -0.21875 0.53125 -0.390625q0.203125 -0.171875 0.40625 -0.171875q0.265625 0 0.390625 0.1875l0.5625 0.734375q-0.75 0.921875 -1.875 1.34375q-1.125 0.421875 -2.359375 0.421875q-1.078125 0 -2.0 -0.390625q-0.921875 -0.40625 -1.609375 -1.15625q-0.671875 -0.75 -1.0625 -1.84375q-0.390625 -1.109375 -0.390625 -2.515625q0 -1.28125 0.34375 -2.359375q0.359375 -1.09375 1.046875 -1.875q0.6875 -0.78125 1.6875 -1.21875q1.015625 -0.453125 2.3125 -0.453125q1.203125 0 2.125 0.390625q0.9375 0.390625 1.65625 1.109375l-0.53125 0.71875zm11.174316 9.4375l-0.890625 0q-0.296875 0 -0.484375 -0.09375q-0.171875 -0.09375 -0.234375 -0.375l-0.21875 -1.078125q-0.453125 0.40625 -0.890625 0.734375q-0.421875 0.328125 -0.90625 0.546875q-0.46875 0.21875 -1.015625 0.328125q-0.53125 0.125 -1.1875 0.125q-0.671875 0 -1.265625 -0.1875q-0.578125 -0.1875 -1.015625 -0.5625q-0.421875 -0.375 -0.671875 -0.9375q-0.25 -0.578125 -0.25 -1.359375q0 -0.6875 0.375 -1.3125q0.375 -0.625 1.203125 -1.109375q0.828125 -0.5 2.171875 -0.8125q1.359375 -0.3125 3.296875 -0.359375l0 -0.890625q0 -1.328125 -0.578125 -2.015625q-0.5625 -0.6875 -1.6875 -0.6875q-0.734375 0 -1.234375 0.1875q-0.5 0.1875 -0.875 0.421875q-0.359375 0.234375 -0.625 0.421875q-0.265625 0.171875 -0.53125 0.171875q-0.203125 0 -0.359375 -0.09375q-0.15625 -0.109375 -0.25 -0.265625l-0.359375 -0.65625q0.953125 -0.90625 2.046875 -1.359375q1.109375 -0.453125 2.4375 -0.453125q0.96875 0 1.71875 0.3125q0.75 0.3125 1.25 0.890625q0.515625 0.5625 0.765625 1.375q0.265625 0.796875 0.265625 1.75l0 7.34375zm-5.234375 -1.234375q0.53125 0 0.96875 -0.109375q0.453125 -0.109375 0.84375 -0.296875q0.390625 -0.203125 0.75 -0.484375q0.359375 -0.28125 0.6875 -0.65625l0 -2.390625q-1.390625 0.046875 -2.359375 0.234375q-0.96875 0.171875 -1.59375 0.453125q-0.609375 0.28125 -0.890625 0.671875q-0.265625 0.375 -0.265625 0.859375q0 0.453125 0.140625 0.78125q0.15625 0.328125 0.390625 0.546875q0.25 0.203125 0.59375 0.296875q0.34375 0.09375 0.734375 0.09375zm10.533691 -15.453125l0 16.6875l-2.015625 0l0 -16.6875l2.015625 0zm5.800049 0l0 16.6875l-2.015625 0l0 -16.6875l2.015625 0zm6.925049 20.078125q-0.09375 0.21875 -0.25 0.359375q-0.15625 0.140625 -0.46875 0.140625l-1.5 0l2.09375 -4.5625l-4.734375 -10.796875l1.75 0q0.25 0 0.390625 0.125q0.15625 0.125 0.234375 0.28125l3.0625 7.234375q0.109375 0.25 0.171875 0.5q0.078125 0.25 0.140625 0.5q0.078125 -0.25 0.15625 -0.5q0.078125 -0.25 0.171875 -0.515625l2.984375 -7.21875q0.078125 -0.171875 0.234375 -0.28125q0.171875 -0.125 0.359375 -0.125l1.609375 0l-6.40625 14.859375z" fill-rule="nonzero"/></g></svg>