<?xml version="1.0" encoding="utf-8"?>
<!-- Generator: Adobe Illustrator 16.0.0, SVG Export Plug-In . SVG Version: 6.00 Build 0)  -->
<!DOCTYPE svg PUBLIC "-//W3C//DTD SVG 1.1//EN" "http://www.w3.org/Graphics/SVG/1.1/DTD/svg11.dtd">
<svg version="1.1" id="Layer_1" xmlns="http://www.w3.org/2000/svg" xmlns:xlink="http://www.w3.org/1999/xlink" x="0px" y="0px"
	 width="20px" height="20px" viewBox="0 0 20 20" enable-background="new 0 0 20 20" xml:space="preserve">
<g id="XMLID_1_">
	<g>
		<path fill="#3F0009" d="M19.5,3.5v13c0,1.66-1.34,3-3,3h-13c-1.66,0-3-1.34-3-3v-13c0-1.66,1.34-3,3-3h13
			C18.16,0.5,19.5,1.84,19.5,3.5z"/>
	</g>
	<g>
		<path fill="none" stroke="#FF7A7A" stroke-miterlimit="10" d="M19.5,16.5c0,1.66-1.34,3-3,3h-13c-1.66,0-3-1.34-3-3v-13
			c0-1.66,1.34-3,3-3h13c1.66,0,3,1.34,3,3V16.5z"/>
	</g>
</g>
<path fill="#FF7076" d="M14.983,13.709c-0.321,0.323-0.844,0.325-1.167,0.003L5.772,5.706C5.45,5.384,5.448,4.861,5.77,4.539
	l0.247-0.248c0.321-0.323,0.844-0.324,1.167-0.002l8.044,8.007c0.323,0.321,0.324,0.845,0.002,1.167L14.983,13.709z"/>
<path fill="#FF7076" d="M15.194,4.5c0.324,0.32,0.328,0.843,0.006,1.167l-7.979,8.071c-0.32,0.324-0.843,0.327-1.167,0.007
	l-0.249-0.246c-0.324-0.32-0.327-0.843-0.006-1.167l7.979-8.071c0.32-0.324,0.843-0.327,1.166-0.006L15.194,4.5z"/>
</svg>
